<?xml version="1.0"?>
<svg fill="#000000" height="24" width="24" version="1.1" id="Layer_1" xmlns="http://www.w3.org/2000/svg" xmlns:xlink="http://www.w3.org/1999/xlink"
    viewBox="0 0 511.996 511.996" xml:space="preserve">
 <g class="layer" transform="rotate(90 256 256)">
  <title>Layer 1</title>
  <g>
   <g id="svg_2">
    <path d="m264.54,380.41l0,-22.51c52.49,-4.36 93.9,-48.4 93.9,-102.01s-41.41,-97.64 -93.9,-102l0,-40.19l74.38,22.32c0.81,0.24 1.63,0.36 2.45,0.36c2.7,0 5.31,-1.29 6.94,-3.57c2.12,-2.97 2.12,-6.96 0,-9.93l-85.37,-119.51c-3.21,-4.49 -10.69,-4.49 -13.9,0l-85.37,119.51c-2.11,2.97 -2.11,6.96 0,9.93c2.13,2.97 5.92,4.25 9.4,3.21l74.39,-22.31l0,40.18c-52.49,4.36 -93.9,48.4 -93.9,102s41.41,97.65 93.9,102.01l0,22.51l-74.33,74.33c-1.6,1.6 -2.5,3.77 -2.5,6.04l0,42.68c0,4.71 3.83,8.54 8.54,8.54l153.66,0c4.71,0 8.54,-3.83 8.54,-8.54l0,-42.68c0,-2.27 -0.9,-4.44 -2.5,-6.04l-74.33,-74.33zm0,-209.45c40.26,4.01 72.38,36.13 76.39,76.4l-25.86,0c-3.76,-26.12 -24.42,-46.79 -50.54,-50.54l0,-25.86l0.01,0zm0,144.01c26.11,-3.77 46.78,-24.43 50.53,-50.54l25.86,0c-4.01,40.27 -36.13,72.38 -76.39,76.39l0,-25.85zm-17.08,25.85c-40.27,-4.01 -72.38,-36.12 -76.39,-76.39l25.85,0c3.77,26.11 24.43,46.78 50.54,50.54l0,25.85zm0,-144.01c-26.11,3.76 -46.78,24.42 -50.54,50.54l-25.86,0c4.02,-40.26 36.13,-72.38 76.4,-76.4l0,25.86z" id="svg_3"/>
   </g>
  </g>
 </g>
</svg>