<?xml version="1.0" encoding="UTF-8"?>
<svg version="1.1" xmlns="http://www.w3.org/2000/svg" width="342" height="269">
<path d="M0 0 C2.39316121 2.12056741 4.65986479 4.30061604 6.890625 6.58984375 C7.798125 7.43546875 8.705625 8.28109375 9.640625 9.15234375 C24.04006955 24.75174202 30.73360083 44.10043653 30.2109375 65.16796875 C29.11625385 86.0497493 18.74503433 104.36961781 3.83203125 118.546875 C-0.72222629 122.58984375 -0.72222629 122.58984375 -3.109375 122.58984375 C-3.109375 123.24984375 -3.109375 123.90984375 -3.109375 124.58984375 C-22.57060064 135.9629288 -43.54377641 140.58491011 -66.0859375 135.671875 C-78.15253248 132.4132565 -89.65853744 125.70623036 -99.109375 117.58984375 C-99.109375 116.92984375 -99.109375 116.26984375 -99.109375 115.58984375 C-99.769375 115.58984375 -100.429375 115.58984375 -101.109375 115.58984375 C-101.109375 114.92984375 -101.109375 114.26984375 -101.109375 113.58984375 C-101.769375 113.58984375 -102.429375 113.58984375 -103.109375 113.58984375 C-108.9533277 106.90776031 -113.5227426 99.69875179 -117.109375 91.58984375 C-117.66625 90.41421875 -118.223125 89.23859375 -118.796875 88.02734375 C-124.9914138 71.80355165 -124.96123953 51.84774354 -119.109375 35.58984375 C-118.77035156 34.63078125 -118.43132812 33.67171875 -118.08203125 32.68359375 C-113.53142517 20.79379469 -104.9240615 7.7400497 -94.109375 0.58984375 C-93.449375 0.58984375 -92.789375 0.58984375 -92.109375 0.58984375 C-92.109375 -0.07015625 -92.109375 -0.73015625 -92.109375 -1.41015625 C-64.89364515 -21.1988829 -26.4338762 -20.48957489 0 0 Z " fill="#2E5D52" transform="translate(217.109375,43.41015625)"/>
<path d="M0 0 C2.39316121 2.12056741 4.65986479 4.30061604 6.890625 6.58984375 C7.798125 7.43546875 8.705625 8.28109375 9.640625 9.15234375 C24.04006955 24.75174202 30.73360083 44.10043653 30.2109375 65.16796875 C29.11625385 86.0497493 18.74503433 104.36961781 3.83203125 118.546875 C-0.72222629 122.58984375 -0.72222629 122.58984375 -3.109375 122.58984375 C-3.109375 123.24984375 -3.109375 123.90984375 -3.109375 124.58984375 C-22.57060064 135.9629288 -43.54377641 140.58491011 -66.0859375 135.671875 C-78.15253248 132.4132565 -89.65853744 125.70623036 -99.109375 117.58984375 C-99.109375 116.92984375 -99.109375 116.26984375 -99.109375 115.58984375 C-99.769375 115.58984375 -100.429375 115.58984375 -101.109375 115.58984375 C-101.109375 114.92984375 -101.109375 114.26984375 -101.109375 113.58984375 C-101.769375 113.58984375 -102.429375 113.58984375 -103.109375 113.58984375 C-108.9533277 106.90776031 -113.5227426 99.69875179 -117.109375 91.58984375 C-117.66625 90.41421875 -118.223125 89.23859375 -118.796875 88.02734375 C-124.9914138 71.80355165 -124.96123953 51.84774354 -119.109375 35.58984375 C-118.77035156 34.63078125 -118.43132812 33.67171875 -118.08203125 32.68359375 C-113.53142517 20.79379469 -104.9240615 7.7400497 -94.109375 0.58984375 C-93.449375 0.58984375 -92.789375 0.58984375 -92.109375 0.58984375 C-92.109375 -0.07015625 -92.109375 -0.73015625 -92.109375 -1.41015625 C-64.89364515 -21.1988829 -26.4338762 -20.48957489 0 0 Z M-62.109375 -1.41015625 C-66.36474756 4.10809873 -66.36474756 4.10809873 -68.109375 10.58984375 C-68.769375 10.58984375 -69.429375 10.58984375 -70.109375 10.58984375 C-66.46397194 4.28148668 -62.61956141 -1.68445861 -58.109375 -7.41015625 C-70.31093556 -6.78973792 -80.6723359 -2.02116665 -90.109375 5.58984375 C-90.95371094 6.27046875 -91.79804687 6.95109375 -92.66796875 7.65234375 C-104.29873152 17.5659315 -114.45032503 31.95695868 -116.046875 47.58984375 C-116.0972837 48.92238672 -116.13181046 50.25653641 -116.109375 51.58984375 C-115.366875 50.82671875 -114.624375 50.06359375 -113.859375 49.27734375 C-111.67546638 47.14306942 -109.5628922 45.37755607 -107.109375 43.58984375 C-107.57988281 44.1209375 -108.05039063 44.65203125 -108.53515625 45.19921875 C-109.15777344 45.905625 -109.78039062 46.61203125 -110.421875 47.33984375 C-111.03675781 48.0359375 -111.65164062 48.73203125 -112.28515625 49.44921875 C-112.88714844 50.155625 -113.48914063 50.86203125 -114.109375 51.58984375 C-114.67269531 52.24726562 -115.23601562 52.9046875 -115.81640625 53.58203125 C-118.05829359 57.06339104 -117.61740553 60.59519273 -117.109375 64.58984375 C-115.37194099 69.34492631 -112.86963608 72.24738946 -109.109375 75.58984375 C-108.57828125 76.07453125 -108.0471875 76.55921875 -107.5 77.05859375 C-101.83573452 81.80302125 -92.67904919 86.58984375 -85.109375 86.58984375 C-85.109375 87.24984375 -85.109375 87.90984375 -85.109375 88.58984375 C-96.5224245 84.38503604 -107.87829881 79.95624079 -116.109375 70.58984375 C-114.9501669 88.26776731 -105.6328446 102.60632902 -93.109375 114.58984375 C-82.74420432 123.48872199 -69.69795219 129.34991771 -56.109375 130.58984375 C-57.759375 128.60984375 -59.409375 126.62984375 -61.109375 124.58984375 C-60.57570312 125.02296875 -60.04203125 125.45609375 -59.4921875 125.90234375 C-54.4561531 129.66630026 -50.74374187 131.48614911 -44.390625 131.03515625 C-37.61144622 129.71182341 -32.99216063 123.95053653 -29.109375 118.58984375 C-24.19505375 110.35720746 -20.109375 101.30763273 -20.109375 91.58984375 C-24.21629983 91.78035509 -28.31839601 92.02382099 -32.421875 92.27734375 C-33.58912109 92.33083984 -34.75636719 92.38433594 -35.95898438 92.43945312 C-37.07724609 92.51357422 -38.19550781 92.58769531 -39.34765625 92.6640625 C-40.8951355 92.75046997 -40.8951355 92.75046997 -42.47387695 92.83862305 C-45.33774911 93.35223698 -45.33774911 93.35223698 -46.83032227 96.09423828 C-47.25240967 96.91778809 -47.67449707 97.74133789 -48.109375 98.58984375 C-50.3359375 99.4453125 -50.3359375 99.4453125 -52.734375 99.77734375 C-55.08437247 100.08938907 -55.08437247 100.08938907 -57.109375 100.58984375 C-57.439375 101.24984375 -57.769375 101.90984375 -58.109375 102.58984375 C-55.634375 102.09484375 -55.634375 102.09484375 -53.109375 101.58984375 C-54.91944845 109.81274886 -54.91944845 109.81274886 -57.83203125 111.71484375 C-59.5877393 112.34935015 -61.34835727 112.9702264 -63.109375 113.58984375 C-64.24243657 115.6061768 -64.24243657 115.6061768 -64.109375 117.58984375 C-63.779375 117.91984375 -63.449375 118.24984375 -63.109375 118.58984375 C-63.06856717 120.58942739 -63.06683144 122.59029629 -63.109375 124.58984375 C-66.984375 122.83984375 -66.984375 122.83984375 -68.109375 120.58984375 C-68.2630942 119.2177576 -68.38361972 117.84183263 -68.484375 116.46484375 C-68.88578823 112.43776259 -69.88134447 109.11552796 -71.41015625 105.38671875 C-72.27557716 103.16273206 -72.74159 100.94366772 -73.109375 98.58984375 C-72.449375 99.90984375 -71.789375 101.22984375 -71.109375 102.58984375 C-71.09519531 101.93757813 -71.08101562 101.2853125 -71.06640625 100.61328125 C-70.71636595 94.19902934 -69.72657283 91.08865189 -65.109375 86.58984375 C-67.48312361 86.2555864 -67.48312361 86.2555864 -70.109375 86.58984375 C-71.95253171 88.49029045 -71.95253171 88.49029045 -73.109375 90.58984375 C-74.099375 90.25984375 -75.089375 89.92984375 -76.109375 89.58984375 C-76.439375 90.24984375 -76.769375 90.90984375 -77.109375 91.58984375 C-77.769375 91.58984375 -78.429375 91.58984375 -79.109375 91.58984375 C-79.769375 89.93984375 -80.429375 88.28984375 -81.109375 86.58984375 C-79.789375 86.91984375 -78.469375 87.24984375 -77.109375 87.58984375 C-77.109375 85.93984375 -77.109375 84.28984375 -77.109375 82.58984375 C-79.584375 83.08484375 -79.584375 83.08484375 -82.109375 83.58984375 C-81.50753751 81.56938933 -80.83631404 79.56873336 -80.109375 77.58984375 C-79.449375 77.25984375 -78.789375 76.92984375 -78.109375 76.58984375 C-78.109375 73.61984375 -78.109375 70.64984375 -78.109375 67.58984375 C-77.449375 67.58984375 -76.789375 67.58984375 -76.109375 67.58984375 C-75.24203696 72.10000155 -74.82340656 74.58939898 -77.109375 78.58984375 C-76.779375 79.57984375 -76.449375 80.56984375 -76.109375 81.58984375 C-75.119375 81.25984375 -74.129375 80.92984375 -73.109375 80.58984375 C-73.109375 78.27984375 -73.109375 75.96984375 -73.109375 73.58984375 C-72.119375 73.58984375 -71.129375 73.58984375 -70.109375 73.58984375 C-70.109375 72.26984375 -70.109375 70.94984375 -70.109375 69.58984375 C-71.099375 69.25984375 -72.089375 68.92984375 -73.109375 68.58984375 C-73.109375 67.59984375 -73.109375 66.60984375 -73.109375 65.58984375 C-72.449375 65.58984375 -71.789375 65.58984375 -71.109375 65.58984375 C-70.779375 66.24984375 -70.449375 66.90984375 -70.109375 67.58984375 C-68.13414654 68.63792416 -66.13455991 69.64188485 -64.109375 70.58984375 C-63.449375 69.92984375 -62.789375 69.26984375 -62.109375 68.58984375 C-61.449375 70.23984375 -60.789375 71.88984375 -60.109375 73.58984375 C-59.119375 73.58984375 -58.129375 73.58984375 -57.109375 73.58984375 C-57.109375 75.23984375 -57.109375 76.88984375 -57.109375 78.58984375 C-55.789375 78.58984375 -54.469375 78.58984375 -53.109375 78.58984375 C-53.109375 80.23984375 -53.109375 81.88984375 -53.109375 83.58984375 C-49.149375 82.59984375 -49.149375 82.59984375 -45.109375 81.58984375 C-45.315625 82.49734375 -45.521875 83.40484375 -45.734375 84.33984375 C-46.13423677 87.80531238 -45.76412795 88.68455231 -44.109375 91.58984375 C-35.67831944 91.94692375 -27.40695732 91.05664217 -19.109375 89.58984375 C-16.75159917 87.23206792 -17.13563361 82.53187152 -17.046875 79.34765625 C-17.046875 77.42827235 -17.07570678 75.50893234 -17.109375 73.58984375 C-16.449375 73.58984375 -15.789375 73.58984375 -15.109375 73.58984375 C-15.769375 78.53984375 -16.429375 83.48984375 -17.109375 88.58984375 C-15.129375 88.58984375 -13.149375 88.58984375 -11.109375 88.58984375 C-14.574375 89.57984375 -14.574375 89.57984375 -18.109375 90.58984375 C-18.33625 91.62109375 -18.563125 92.65234375 -18.796875 93.71484375 C-22.4158106 107.98812821 -27.19885402 120.46045965 -39.109375 129.58984375 C-35.11078706 131.18927892 -31.71452563 129.95328435 -27.796875 128.71484375 C-26.74814209 128.38516602 -26.74814209 128.38516602 -25.67822266 128.04882812 C-12.74626569 123.69267824 -0.99382058 115.8019865 7.390625 105.02734375 C7.8640332 104.42108154 8.33744141 103.81481934 8.82519531 103.19018555 C12.9407945 97.77770718 16.67898462 92.06828089 18.890625 85.58984375 C18.560625 84.59984375 18.230625 83.60984375 17.890625 82.58984375 C15.910625 82.58984375 13.930625 82.58984375 11.890625 82.58984375 C12.220625 85.22984375 12.550625 87.86984375 12.890625 90.58984375 C11.570625 90.91984375 10.250625 91.24984375 8.890625 91.58984375 C8.890625 93.23984375 8.890625 94.88984375 8.890625 96.58984375 C6.910625 96.09484375 6.910625 96.09484375 4.890625 95.58984375 C5.220625 97.56984375 5.550625 99.54984375 5.890625 101.58984375 C4.240625 101.58984375 2.590625 101.58984375 0.890625 101.58984375 C0.890625 102.90984375 0.890625 104.22984375 0.890625 105.58984375 C-1.089375 105.09484375 -1.089375 105.09484375 -3.109375 104.58984375 C-4.78016869 98.02601139 -5.65906837 91.52278796 -6.32373047 84.79516602 C-6.8087075 80.18894545 -7.71713526 76.01020491 -9.109375 71.58984375 C-12.81425602 70.2176656 -14.5518954 71.14991153 -18.109375 72.58984375 C-23.44270833 73.12317708 -23.44270833 73.12317708 -25.984375 71.08984375 C-26.54125 70.34734375 -26.54125 70.34734375 -27.109375 69.58984375 C-26.305 69.21859375 -25.500625 68.84734375 -24.671875 68.46484375 C-21.79764604 66.77891005 -21.79764604 66.77891005 -21.296875 63.40234375 C-21.235 62.47421875 -21.173125 61.54609375 -21.109375 60.58984375 C-21.645625 61.20859375 -22.181875 61.82734375 -22.734375 62.46484375 C-25.42040523 64.86813395 -27.66352062 65.65006528 -31.109375 66.58984375 C-30.10744063 62.7968065 -29.29913273 59.87448034 -27.109375 56.58984375 C-27.769375 55.92984375 -28.429375 55.26984375 -29.109375 54.58984375 C-28.796875 52.27734375 -28.796875 52.27734375 -28.109375 49.58984375 C-27.8309375 48.19765625 -27.8309375 48.19765625 -27.546875 46.77734375 C-27.3303125 45.69453125 -27.3303125 45.69453125 -27.109375 44.58984375 C-28.099375 44.58984375 -29.089375 44.58984375 -30.109375 44.58984375 C-28.546875 41.65234375 -28.546875 41.65234375 -26.109375 38.58984375 C-22.359375 37.71484375 -22.359375 37.71484375 -19.109375 37.58984375 C-20.594375 37.09484375 -20.594375 37.09484375 -22.109375 36.58984375 C-22.109375 35.26984375 -22.109375 33.94984375 -22.109375 32.58984375 C-31.68669212 28.39763733 -42.84488338 29.46517381 -53.109375 29.58984375 C-53.109375 28.92984375 -53.109375 28.26984375 -53.109375 27.58984375 C-37.269375 28.08484375 -37.269375 28.08484375 -21.109375 28.58984375 C-21.109375 17.42584103 -26.28310542 5.55768623 -34.19921875 -2.55078125 C-39.59628771 -7.35251349 -42.84026055 -8.96685277 -50.15625 -8.87109375 C-55.3938279 -8.05358821 -58.61064113 -5.25469521 -62.109375 -1.41015625 Z " fill="#609562" transform="translate(217.109375,43.41015625)"/>
<path d="M0 0 C0.33 0.66 0.66 1.32 1 2 C4.3 2 7.6 2 11 2 C10.67 3.65 10.34 5.3 10 7 C10.66 6.67 11.32 6.34 12 6 C13.99960012 5.960008 16.00047242 5.95653201 18 6 C18 5.01 18 4.02 18 3 C18.71027344 2.86722656 19.42054688 2.73445313 20.15234375 2.59765625 C21.07144531 2.42105469 21.99054688 2.24445312 22.9375 2.0625 C23.85402344 1.88847656 24.77054688 1.71445312 25.71484375 1.53515625 C27.95289844 1.22285012 27.95289844 1.22285012 29 0 C30.66617115 -0.04063832 32.33388095 -0.042721 34 0 C34 1.98 34 3.96 34 6 C30.7 6 27.4 6 24 6 C24 6.66 24 7.32 24 8 C23.01 8.33 22.02 8.66 21 9 C21 10.98 21 12.96 21 15 C22.65 14.67 24.3 14.34 26 14 C25.67 15.65 25.34 17.3 25 19 C25.99 19 26.98 19 28 19 C28.36363636 24.45454545 28.36363636 24.45454545 26.75 26.875 C25 28 25 28 21 28 C21 25.36 21 22.72 21 20 C19.18726503 23.39689023 19.18726503 23.39689023 18 27 C19.31865712 29.64225405 19.31865712 29.64225405 21 32 C20.9375 34.6875 20.9375 34.6875 20 37 C18 38.1875 18 38.1875 16 39 C15.505 39.99 15.505 39.99 15 41 C16.98 40.505 16.98 40.505 19 40 C20.32229189 42.64458379 20.09677194 44.67761301 20.0625 47.625 C20.05347656 48.62789062 20.04445312 49.63078125 20.03515625 50.6640625 C20.02355469 51.43492188 20.01195312 52.20578125 20 53 C20.99 53.33 21.98 53.66 23 54 C23.33 54.99 23.66 55.98 24 57 C24.99 57.33 25.98 57.66 27 58 C27 59.32 27 60.64 27 62 C26.01 62 25.02 62 24 62 C24 64.31 24 66.62 24 69 C22.02 69.495 22.02 69.495 20 70 C20.144375 69.319375 20.28875 68.63875 20.4375 67.9375 C22.01659643 61.84985764 22.01659643 61.84985764 21 56 C20.34 56 19.68 56 19 56 C19.05220703 56.93972656 19.05220703 56.93972656 19.10546875 57.8984375 C19.13253906 58.71570313 19.15960938 59.53296875 19.1875 60.375 C19.23970703 61.59316406 19.23970703 61.59316406 19.29296875 62.8359375 C19.19628906 63.55007812 19.09960938 64.26421875 19 65 C18.01 65.66 17.02 66.32 16 67 C15.27034634 69.56282742 15.27034634 69.56282742 15 72 C17.475 71.505 17.475 71.505 20 71 C20 72.65 20 74.3 20 76 C18.68 75.67 17.36 75.34 16 75 C16.66 76.65 17.32 78.3 18 80 C18.66 80 19.32 80 20 80 C20.66 79.34 21.32 78.68 22 78 C22.99 78.33 23.98 78.66 25 79 C25.66 77.68 26.32 76.36 27 75 C28.65 75 30.3 75 32 75 C30.7934375 76.175625 30.7934375 76.175625 29.5625 77.375 C26.10486851 81.43820536 26.11203893 85.84620904 26 91 C25.34 89.68 24.68 88.36 24 87 C24.47488898 88.98019743 24.95502859 90.95913635 25.4375 92.9375 C25.70433594 94.03964844 25.97117188 95.14179688 26.24609375 96.27734375 C26.72995725 98.89421254 26.72995725 98.89421254 28 100 C28.13101137 101.43530239 28.23007469 102.87358964 28.3125 104.3125 C28.64261166 107.7110266 28.83316275 108.78623977 31 111.5625 C32.72483463 113.09727267 32.72483463 113.09727267 34 113 C34.07427838 109.65747276 34.06546953 107.1964086 33 104 C33.33 103.34 33.66 102.68 34 102 C35.11375 101.649375 36.2275 101.29875 37.375 100.9375 C40.00051106 99.9131733 40.81969252 99.35063254 42.12890625 96.8046875 C42.86094709 94.54844568 43.4901899 92.31599443 44 90 C41.525 90.495 41.525 90.495 39 91 C39.33 90.34 39.66 89.68 40 89 C42.24600101 88.47652965 44.48963525 88.1716303 46.7734375 87.85546875 C49.25855844 87.17957925 49.25855844 87.17957925 50.34765625 84.47265625 C52 82 52 82 55.22265625 81.328125 C56.48980469 81.30234375 57.75695312 81.2765625 59.0625 81.25 C60.40890028 81.20581029 61.75525569 81.16023222 63.1015625 81.11328125 C64.38804687 81.07589844 65.67453125 81.03851563 67 81 C68.98106119 80.83370654 70.96084953 80.64989081 72.9375 80.4375 C73.73027344 80.35371094 74.52304688 80.26992187 75.33984375 80.18359375 C75.88769531 80.12300781 76.43554688 80.06242187 77 80 C76.35123987 92.75894916 71.19548314 104.87719851 62.06640625 113.9140625 C57.1413599 118.23499713 54.13642789 119.34054061 47.54296875 119.29296875 C43.90971638 118.87439129 41.77565987 117.30176672 39 115 C38.01 114.34 37.02 113.68 36 113 C37.65 114.98 39.3 116.96 41 119 C22.55821508 117.57866783 6.98645547 107.41094156 -4.8984375 93.69921875 C-12.90703193 83.41308724 -18.14467184 72.04375444 -19 59 C-18.29875 59.7425 -17.5975 60.485 -16.875 61.25 C-8.72025497 69.0501909 1.46679094 73.4142267 12 77 C12 76.34 12 75.68 12 75 C10.2984375 74.62875 10.2984375 74.62875 8.5625 74.25 C-1.26702678 71.7580073 -12.36799049 66.78593483 -18 58 C-20.42938089 53.6271144 -21.29683171 48.85167628 -20 44 C-17.3312843 40.30810081 -14.21335016 37.21335016 -11 34 C-10.67 33.34 -10.34 32.68 -10 32 C-11.12588014 32.95729916 -12.2506715 33.91587895 -13.375 34.875 C-14.00148438 35.40867188 -14.62796875 35.94234375 -15.2734375 36.4921875 C-16.55836651 37.61432007 -17.79371975 38.79371975 -19 40 C-19.23073201 26.28792639 -11.57296627 13.1943751 -3 3 C-2.01674694 1.98352893 -1.02340938 0.97602932 0 0 Z " fill="#326152" transform="translate(120,55)"/>
<path d="M0 0 C0.70511719 0.74378906 1.41023438 1.48757812 2.13671875 2.25390625 C11.14906918 10.89740196 22.43522275 14.98303091 34 19 C35.67117734 19.65527743 37.34001982 20.31685431 39 21 C39.66 20.34 40.32 19.68 41 19 C41.99 19.33 42.98 19.66 44 20 C44.66 18.68 45.32 17.36 46 16 C47.65 16 49.3 16 51 16 C50.195625 16.78375 49.39125 17.5675 48.5625 18.375 C45.10486851 22.43820536 45.11203893 26.84620904 45 32 C44.34 30.68 43.68 29.36 43 28 C43.47488898 29.98019743 43.95502859 31.95913635 44.4375 33.9375 C44.70433594 35.03964844 44.97117188 36.14179688 45.24609375 37.27734375 C45.72995725 39.89421254 45.72995725 39.89421254 47 41 C47.13101137 42.43530239 47.23007469 43.87358964 47.3125 45.3125 C47.64261166 48.7110266 47.83316275 49.78623977 50 52.5625 C51.72483463 54.09727267 51.72483463 54.09727267 53 54 C53.07427838 50.65747276 53.06546953 48.1964086 52 45 C52.495 44.01 52.495 44.01 53 43 C54.11375 42.649375 55.2275 42.29875 56.375 41.9375 C59.00051106 40.9131733 59.81969252 40.35063254 61.12890625 37.8046875 C61.86094709 35.54844568 62.4901899 33.31599443 63 31 C61.35 31.33 59.7 31.66 58 32 C58.33 31.34 58.66 30.68 59 30 C61.24600101 29.47652965 63.48963525 29.1716303 65.7734375 28.85546875 C68.25855844 28.17957925 68.25855844 28.17957925 69.34765625 25.47265625 C71 23 71 23 74.22265625 22.328125 C75.48980469 22.30234375 76.75695312 22.2765625 78.0625 22.25 C79.40890028 22.20581029 80.75525569 22.16023222 82.1015625 22.11328125 C84.03128906 22.05720703 84.03128906 22.05720703 86 22 C87.98106119 21.83370654 89.96084953 21.64989081 91.9375 21.4375 C92.73027344 21.35371094 93.52304688 21.26992187 94.33984375 21.18359375 C94.88769531 21.12300781 95.43554688 21.06242187 96 21 C95.35123987 33.75894916 90.19548314 45.87719851 81.06640625 54.9140625 C76.1413599 59.23499713 73.13642789 60.34054061 66.54296875 60.29296875 C62.90971638 59.87439129 60.77565987 58.30176672 58 56 C57.01 55.34 56.02 54.68 55 54 C56.65 55.98 58.3 57.96 60 60 C41.55821508 58.57866783 25.98645547 48.41094156 14.1015625 34.69921875 C6.09296807 24.41308724 0.85532816 13.04375444 0 0 Z " fill="#2E5D52" transform="translate(101,114)"/>
<path d="M0 0 C2.39316121 2.12056741 4.65986479 4.30061604 6.890625 6.58984375 C7.798125 7.43546875 8.705625 8.28109375 9.640625 9.15234375 C24.04006955 24.75174202 30.73360083 44.10043653 30.2109375 65.16796875 C29.11625385 86.0497493 18.74503433 104.36961781 3.83203125 118.546875 C-0.72222629 122.58984375 -0.72222629 122.58984375 -3.109375 122.58984375 C-3.109375 123.24984375 -3.109375 123.90984375 -3.109375 124.58984375 C-22.57060064 135.9629288 -43.54377641 140.58491011 -66.0859375 135.671875 C-78.15253248 132.4132565 -89.65853744 125.70623036 -99.109375 117.58984375 C-99.109375 116.92984375 -99.109375 116.26984375 -99.109375 115.58984375 C-99.769375 115.58984375 -100.429375 115.58984375 -101.109375 115.58984375 C-101.109375 114.92984375 -101.109375 114.26984375 -101.109375 113.58984375 C-101.769375 113.58984375 -102.429375 113.58984375 -103.109375 113.58984375 C-108.9533277 106.90776031 -113.5227426 99.69875179 -117.109375 91.58984375 C-117.66625 90.41421875 -118.223125 89.23859375 -118.796875 88.02734375 C-124.9914138 71.80355165 -124.96123953 51.84774354 -119.109375 35.58984375 C-118.77035156 34.63078125 -118.43132812 33.67171875 -118.08203125 32.68359375 C-113.53142517 20.79379469 -104.9240615 7.7400497 -94.109375 0.58984375 C-93.449375 0.58984375 -92.789375 0.58984375 -92.109375 0.58984375 C-92.109375 -0.07015625 -92.109375 -0.73015625 -92.109375 -1.41015625 C-64.89364515 -21.1988829 -26.4338762 -20.48957489 0 0 Z M-95.109375 7.58984375 C-95.893125 8.29109375 -96.676875 8.99234375 -97.484375 9.71484375 C-110.30504824 21.84250762 -118.89248985 38.97552392 -119.46289062 56.72924805 C-119.67803998 78.49111596 -112.25456683 97.08679861 -97.359375 112.90234375 C-84.23462381 125.43607354 -66.74065897 132.5710779 -48.609375 132.90234375 C-27.58848923 132.28934101 -8.76805032 125.06564118 5.890625 109.58984375 C20.85416184 91.82064375 25.82140632 72.37475324 23.890625 49.58984375 C21.39599028 31.33272229 10.15956551 14.75785438 -4.109375 3.58984375 C-10.10749341 -0.90874506 -16.32381854 -4.1203455 -23.296875 -6.78515625 C-23.94986572 -7.03604004 -24.60285645 -7.28692383 -25.27563477 -7.54541016 C-49.25397336 -16.20936984 -76.57637537 -8.99231382 -95.109375 7.58984375 Z " fill="#305C4F" transform="translate(217.109375,43.41015625)"/>
<path d="M0 0 C7.82110374 0.39105519 13.94717409 2.67212504 21 6 C21.79664063 6.37125 22.59328125 6.7425 23.4140625 7.125 C29.84055677 10.39501829 34.88499489 14.96776196 40 20 C40.71414062 20.70125 41.42828125 21.4025 42.1640625 22.125 C51.09379418 31.50294215 56.67108028 43.29368799 59 56 C58.67 56.99 58.34 57.98 58 59 C57.278125 58.2575 56.55625 57.515 55.8125 56.75 C51.23020708 52.26953581 46.58476576 49.06614591 41 46 C41 46.66 41 47.32 41 48 C41.66 48.20625 42.32 48.4125 43 48.625 C47.37049271 50.62814249 52.78923947 53.57847894 55 58 C53.9275 58.2475 52.855 58.495 51.75 58.75 C48.00350563 59.99883146 46.47926118 61.02488658 44 64 C43.34 61.03 42.68 58.06 42 55 C40.35 56.65 38.7 58.3 37 60 C36.443125 59.71125 35.88625 59.4225 35.3125 59.125 C32.91505355 57.9586747 30.48403061 56.9660119 28 56 C28.00911192 62.08293209 28.00911192 62.08293209 31.0625 66.9375 C31.701875 67.288125 32.34125 67.63875 33 68 C33 68.66 33 69.32 33 70 C30.36 69.67 27.72 69.34 25 69 C25 66.69 25 64.38 25 62 C20.45829004 63.90884692 20.45829004 63.90884692 16 66 C16 65.01 16 64.02 16 63 C15.34 62.67 14.68 62.34 14 62 C14.99 60.68 15.98 59.36 17 58 C17 58.66 17 59.32 17 60 C19.87364791 60.41746608 19.87364791 60.41746608 23 60 C25.56264345 56.90715445 26.43761722 53.93667948 27 50 C24.69 50 22.38 50 20 50 C19.67 48.68 19.34 47.36 19 46 C20.485 45.505 20.485 45.505 22 45 C22.33 44.34 22.66 43.68 23 43 C23.53109375 43.32742187 24.0621875 43.65484375 24.609375 43.9921875 C27.62694157 45.2642989 29.98693023 45.1959363 33.25 45.125 C34.86648437 45.09792969 34.86648437 45.09792969 36.515625 45.0703125 C37.33546875 45.04710937 38.1553125 45.02390625 39 45 C40.04005702 41.61981469 40.08004482 38.5219721 40 35 C30.30771039 33.73743955 30.30771039 33.73743955 21 36 C19.22722741 37.52007842 19.22722741 37.52007842 18 39 C17.34 39 16.68 39 16 39 C16.33 38.01 16.66 37.02 17 36 C17.66 36 18.32 36 19 36 C14.01340187 21.3054598 14.01340187 21.3054598 6.28515625 7.93359375 C5 6 5 6 5 4 C4.360625 3.71125 3.72125 3.4225 3.0625 3.125 C1 2 1 2 0 0 Z " fill="#2E5D52" transform="translate(180,36)"/>
<path d="M0 0 C0.99 0.33 1.98 0.66 3 1 C3 1.66 3 2.32 3 3 C5.07553648 3.5534764 6.84365964 4 9 4 C9.99 4 10.98 4 12 4 C12.33 5.65 12.66 7.3 13 9 C13.99 9 14.98 9 16 9 C16 10.65 16 12.3 16 14 C17.32 14 18.64 14 20 14 C20.33 15.32 20.66 16.64 21 18 C23.31 17.67 25.62 17.34 28 17 C28.08119503 19.24940295 28.13927819 21.49964871 28.1875 23.75 C28.23970703 25.62945312 28.23970703 25.62945312 28.29296875 27.546875 C27.9840899 31.18752708 27.62198383 32.52103347 25 35 C21.3125 36.25 21.3125 36.25 18 37 C18.66 37 19.32 37 20 37 C19.39741036 44.35159363 19.39741036 44.35159363 17.8125 46.9375 C15.29160556 48.4152657 12.8775389 48.68027346 10 49 C10.33 52.63 10.66 56.26 11 60 C10.01 60.495 10.01 60.495 9 61 C4.27140244 57.24137117 4.27140244 57.24137117 3.55078125 53.9453125 C3.43084457 52.40479246 3.32737595 50.86292358 3.23828125 49.3203125 C2.92984263 46.31682828 1.90787291 43.90053721 0.765625 41.12890625 C-0.64505663 37.20634764 -1.28634184 33.09723741 -2 29 C0 31 0 31 1 34 C1.2475 32.741875 1.495 31.48375 1.75 30.1875 C2.48837994 27.16442273 2.79382006 26.1940517 5.125 24 C5.74375 23.67 6.3625 23.34 7 23 C5.68 22.67 4.36 22.34 3 22 C2.34 23.98 1.68 25.96 1 28 C0.67 27.34 0.34 26.68 0 26 C-1.98 26.66 -3.96 27.32 -6 28 C-8 25 -8 25 -8 22 C-6.68 22.33 -5.36 22.66 -4 23 C-4.33 21.68 -4.66 20.36 -5 19 C-6.32 19 -7.64 19 -9 19 C-9 17.35 -9 15.7 -9 14 C-7.68 13.34 -6.36 12.68 -5 12 C-5.33 11.34 -5.66 10.68 -6 10 C-6.04022391 7.6670134 -6.04320247 5.33293334 -6 3 C-4.68 3 -3.36 3 -2 3 C-0.9929762 8.03511899 -1.02612187 11.23947038 -3 16 C-2.01 16 -1.02 16 0 16 C0 13.69 0 11.38 0 9 C0.99 9 1.98 9 3 9 C3 7.68 3 6.36 3 5 C1.68 4.67 0.36 4.34 -1 4 C-0.67 2.68 -0.34 1.36 0 0 Z " fill="#4D7F4B" transform="translate(144,108)"/>
<path d="M0 0 C1.2065625 0.0309375 1.2065625 0.0309375 2.4375 0.0625 C2.4375 2.0425 2.4375 4.0225 2.4375 6.0625 C-0.8625 6.0625 -4.1625 6.0625 -7.5625 6.0625 C-7.5625 6.7225 -7.5625 7.3825 -7.5625 8.0625 C-8.5525 8.3925 -9.5425 8.7225 -10.5625 9.0625 C-10.5625 11.0425 -10.5625 13.0225 -10.5625 15.0625 C-8.9125 14.7325 -7.2625 14.4025 -5.5625 14.0625 C-5.8925 15.7125 -6.2225 17.3625 -6.5625 19.0625 C-5.5725 19.0625 -4.5825 19.0625 -3.5625 19.0625 C-3.19886364 24.51704545 -3.19886364 24.51704545 -4.8125 26.9375 C-6.5625 28.0625 -6.5625 28.0625 -10.5625 28.0625 C-10.5625 25.4225 -10.5625 22.7825 -10.5625 20.0625 C-11.01625 20.84625 -11.47 21.63 -11.9375 22.4375 C-13.5625 25.0625 -13.5625 25.0625 -15.5625 27.0625 C-16.5525 27.0625 -17.5425 27.0625 -18.5625 27.0625 C-18.52125 28.17625 -18.48 29.29 -18.4375 30.4375 C-18.5625 34.0625 -18.5625 34.0625 -20.5625 36.0625 C-21.5525 36.0625 -22.5425 36.0625 -23.5625 36.0625 C-23.76336443 32.34650809 -23.7144437 31.29041555 -21.5625 28.0625 C-22.5525 28.0625 -23.5425 28.0625 -24.5625 28.0625 C-24.61148438 28.68898438 -24.66046875 29.31546875 -24.7109375 29.9609375 C-24.78570312 30.77820313 -24.86046875 31.59546875 -24.9375 32.4375 C-25.00710937 33.24960938 -25.07671875 34.06171875 -25.1484375 34.8984375 C-25.5625 37.0625 -25.5625 37.0625 -27.5625 39.0625 C-28.8825 39.0625 -30.2025 39.0625 -31.5625 39.0625 C-31.2325 36.7525 -30.9025 34.4425 -30.5625 32.0625 C-32.5425 32.5575 -32.5425 32.5575 -34.5625 33.0625 C-33.73974755 38.98987501 -33.73974755 38.98987501 -30.875 44.0625 C-27.80899314 45.3883408 -24.87255807 45.74422519 -21.5625 46.0625 C-21.875 48.4375 -21.875 48.4375 -22.5625 51.0625 C-25.5625 53.0625 -25.5625 53.0625 -29.5625 53.0625 C-29.5625 52.4025 -29.5625 51.7425 -29.5625 51.0625 C-31.0475 51.5575 -31.0475 51.5575 -32.5625 52.0625 C-33.5525 51.7325 -34.5425 51.4025 -35.5625 51.0625 C-36.30368205 48.75175595 -36.96456327 46.41438447 -37.5625 44.0625 C-37.90635742 43.41804932 -38.25021484 42.77359863 -38.60449219 42.10961914 C-39.69583105 39.77759152 -39.82047628 38.18423596 -39.828125 35.62109375 C-39.83070312 34.79029297 -39.83328125 33.95949219 -39.8359375 33.10351562 C-39.82820313 32.24435547 -39.82046875 31.38519531 -39.8125 30.5 C-39.82023437 29.63697266 -39.82796875 28.77394531 -39.8359375 27.88476562 C-39.83335938 27.05525391 -39.83078125 26.22574219 -39.828125 25.37109375 C-39.82586914 24.61626709 -39.82361328 23.86144043 -39.82128906 23.08374023 C-39.5625 21.0625 -39.5625 21.0625 -37.5625 18.0625 C-36.9025 18.0625 -36.2425 18.0625 -35.5625 18.0625 C-35.376875 16.4228125 -35.376875 16.4228125 -35.1875 14.75 C-34.5625 11.0625 -34.5625 11.0625 -32.5625 8.0625 C-32.5625 7.0725 -32.5625 6.0825 -32.5625 5.0625 C-32.2325 4.0725 -31.9025 3.0825 -31.5625 2.0625 C-27.9325 2.0625 -24.3025 2.0625 -20.5625 2.0625 C-20.8925 3.7125 -21.2225 5.3625 -21.5625 7.0625 C-20.9025 6.7325 -20.2425 6.4025 -19.5625 6.0625 C-17.56289988 6.022508 -15.56202758 6.01903201 -13.5625 6.0625 C-13.5625 5.0725 -13.5625 4.0825 -13.5625 3.0625 C-12.85222656 2.92972656 -12.14195312 2.79695313 -11.41015625 2.66015625 C-10.49105469 2.48355469 -9.57195312 2.30695312 -8.625 2.125 C-7.70847656 1.95097656 -6.79195312 1.77695312 -5.84765625 1.59765625 C-3.05499644 0.94364874 -2.95318379 0.07202887 0 0 Z " fill="#45764E" transform="translate(151.5625,54.9375)"/>
<path d="M0 0 C3.3 0 6.6 0 10 0 C10.66 5.61 11.32 11.22 12 17 C12.33 11.39 12.66 5.78 13 0 C15.97 0 18.94 0 22 0 C22 15.84 22 31.68 22 48 C18.7 48 15.4 48 12 48 C11.67 46.35 11.34 44.7 11 43 C10.67 43 10.34 43 10 43 C9.505 45.475 9.505 45.475 9 48 C2.25 49.125 2.25 49.125 0 48 C0 32.16 0 16.32 0 0 Z " fill="#2D5B52" transform="translate(223,208)"/>
<path d="M0 0 C2.97 0 5.94 0 9 0 C9.33 13.2 9.66 26.4 10 40 C10.66 40.33 11.32 40.66 12 41 C12 27.47 12 13.94 12 0 C15.3 0 18.6 0 22 0 C22.07425639 5.88986463 22.12865268 11.77945566 22.16479492 17.66967773 C22.17986465 19.67265572 22.2003241 21.6756008 22.22631836 23.6784668 C22.26278127 26.56046681 22.27974461 29.44202984 22.29296875 32.32421875 C22.30845261 33.21711105 22.32393646 34.11000336 22.33988953 35.029953 C22.34118856 39.84843079 22.16236981 43.09742927 19 47 C14.99398127 49.70344822 10.66954458 49.69085954 6 49 C2.50109996 46.88608123 1.29421314 45.88263941 0 42 C-0.08589303 40.60344541 -0.11772715 39.20314223 -0.11352539 37.80395508 C-0.11344986 36.96331009 -0.11337433 36.1226651 -0.11329651 35.25654602 C-0.10813522 34.35333115 -0.10297394 33.45011627 -0.09765625 32.51953125 C-0.0962413 31.59154221 -0.09482635 30.66355316 -0.09336853 29.70744324 C-0.08776937 26.74242942 -0.07521704 23.77749101 -0.0625 20.8125 C-0.05748489 18.80273547 -0.052922 16.79296975 -0.04882812 14.78320312 C-0.03780021 9.85543968 -0.02053617 4.92773263 0 0 Z " fill="#2D5C52" transform="translate(57,208)"/>
<path d="M0 0 C1.28583984 0.10054687 1.28583984 0.10054687 2.59765625 0.203125 C5.37539208 0.8523454 6.14223615 1.57341132 7.9375 3.75 C10.88608151 11.5897694 10.07695447 20.36380619 9.75 28.5625 C9.71841797 29.85865234 9.68683594 31.15480469 9.65429688 32.49023438 C9.58758789 34.36098633 9.58758789 34.36098633 9.51953125 36.26953125 C9.48061768 37.39464111 9.4417041 38.51975098 9.40161133 39.67895508 C8.8870442 43.08386823 7.98298917 44.99979551 5.9375 47.75 C1.89264343 50.44657104 -1.31557196 50.2922677 -6.0625 49.75 C-8.88613797 48.54845193 -10.42356831 47.66700354 -12.17041016 45.15991211 C-13.47528972 41.63488031 -13.38775142 38.15283668 -13.3984375 34.44140625 C-13.4050943 33.63767075 -13.4117511 32.83393524 -13.41860962 32.00584412 C-13.42871769 30.30885094 -13.43342721 28.61181817 -13.43310547 26.91479492 C-13.43747942 24.32468969 -13.47381798 21.73628838 -13.51171875 19.14648438 C-13.51758727 17.49479747 -13.52155643 15.84310251 -13.5234375 14.19140625 C-13.53780853 13.42043106 -13.55217957 12.64945587 -13.56698608 11.8551178 C-13.53523969 8.10184684 -13.20002934 5.96450354 -11.15454102 2.77416992 C-7.63328895 -0.63284383 -4.71870069 -0.42703174 0 0 Z M-3.0625 7.75 C-4.41355145 8.87427635 -4.41355145 8.87427635 -4.17602539 11.80102539 C-4.17586634 13.14991271 -4.17017612 14.49880614 -4.16015625 15.84765625 C-4.1587413 16.55651474 -4.15732635 17.26537323 -4.15586853 17.99571228 C-4.15025443 20.26801712 -4.13769963 22.54022475 -4.125 24.8125 C-4.11998681 26.34960796 -4.11542359 27.88671745 -4.11132812 29.42382812 C-4.10028042 33.19925642 -4.08300641 36.97461171 -4.0625 40.75 C-2.7425 40.75 -1.4225 40.75 -0.0625 40.75 C-0.0625 30.19 -0.0625 19.63 -0.0625 8.75 C-1.0525 8.42 -2.0425 8.09 -3.0625 7.75 Z " fill="#2F5B52" transform="translate(311.0625,207.25)"/>
<path d="M0 0 C0 0.66 0 1.32 0 2 C0.99 2.33 1.98 2.66 3 3 C3.96070434 5.88211302 4.10581883 7.69850044 4.0625 10.6875 C4.05347656 11.49574219 4.04445313 12.30398437 4.03515625 13.13671875 C4.02355469 13.75160156 4.01195312 14.36648437 4 15 C0.62902617 16.49821059 -1.20442119 17 -5 17 C-5.33 14.03 -5.66 11.06 -6 8 C-6.66 8 -7.32 8 -8 8 C-8 18.56 -8 29.12 -8 40 C-7.34 40 -6.68 40 -6 40 C-5.67 35.38 -5.34 30.76 -5 26 C-5.66 26 -6.32 26 -7 26 C-7 24.68 -7 23.36 -7 22 C-3.37 22 0.26 22 4 22 C4.08111739 25.2296738 4.14055592 28.45730014 4.1875 31.6875 C4.21263672 32.59951172 4.23777344 33.51152344 4.26367188 34.45117188 C4.35882136 43.17320802 4.35882136 43.17320802 1 47 C-3.02218839 49.71436026 -7.31417971 49.66103536 -12 49 C-15.46915762 47.1547034 -16.65589228 45.85845822 -18.11328125 42.22265625 C-19.68232196 36.29611242 -19.28776806 30.08065834 -19.25 24 C-19.25773437 22.75476563 -19.26546875 21.50953125 -19.2734375 20.2265625 C-19.242945 5.92558044 -19.242945 5.92558044 -15.5625 1.125 C-11.09252388 -2.09338281 -5.04764851 -1.61524752 0 0 Z " fill="#2D5950" transform="translate(279,208)"/>
<path d="M0 0 C3.46204548 3.46204548 3.43161799 4.13630319 3.4375 8.8125 C3.3117693 14.01775105 2.5674521 17.02483909 -1 21 C-1.45375 21.639375 -1.9075 22.27875 -2.375 22.9375 C-4 24 -4 24 -7.1875 23.6875 C-8.115625 23.460625 -9.04375 23.23375 -10 23 C-9.62095792 26.29075996 -9.62095792 26.29075996 -8 29 C-6.33382885 29.04063832 -4.66611905 29.042721 -3 29 C-3.12375 28.278125 -3.2475 27.55625 -3.375 26.8125 C-2.93998169 23.54986264 -2.44438849 23.1958004 0 21.1875 C1.485 20.1046875 1.485 20.1046875 3 19 C2.71812064 20.79323253 2.4241719 22.58457126 2.125 24.375 C1.96257812 25.37273437 1.80015625 26.37046875 1.6328125 27.3984375 C1 30 1 30 -1 32 C-4.125 31.625 -4.125 31.625 -7 31 C-6.505 34.96 -6.505 34.96 -6 39 C-6.99 39.33 -7.98 39.66 -9 40 C-9.33 41.65 -9.66 43.3 -10 45 C-11.485 45.495 -11.485 45.495 -13 46 C-13 47.32 -13 48.64 -13 50 C-14.65 50 -16.3 50 -18 50 C-18 51.32 -18 52.64 -18 54 C-19.65 53.67 -21.3 53.34 -23 53 C-24.84557229 45.74953742 -25.71968956 38.50634247 -26.53515625 31.0859375 C-26.94402943 27.37706211 -27.45266463 23.69088097 -28 20 C-30.31 20.33 -32.62 20.66 -35 21 C-34.67 19.68 -34.34 18.36 -34 17 C-35.98 16.34 -37.96 15.68 -40 15 C-39.67 14.34 -39.34 13.68 -39 13 C-35.9375 12.375 -35.9375 12.375 -33 12 C-33 13.32 -33 14.64 -33 16 C-27.44506076 17.02703748 -27.44506076 17.02703748 -22 16 C-22.020625 14.824375 -22.04125 13.64875 -22.0625 12.4375 C-22.06947261 8.52586533 -21.64250343 4.85502056 -21 1 C-20.34 1.33 -19.68 1.66 -19 2 C-19 3.65 -19 5.3 -19 7 C-15.71023192 8.09658936 -14.28696233 7.79953138 -11 7 C-11.33 7.61875 -11.66 8.2375 -12 8.875 C-13.14193235 10.91018344 -13.14193235 10.91018344 -13 13 C-14.32 13 -15.64 13 -17 13 C-17.16687448 15.41645782 -17.16687448 15.41645782 -17 18 C-15.04366025 20.41121859 -15.04366025 20.41121859 -11.375 20.125 C-10.26125 20.08375 -9.1475 20.0425 -8 20 C-7.505 18.515 -7.505 18.515 -7 17 C-7.66 16.67 -8.32 16.34 -9 16 C-9 15.34 -9 14.68 -9 14 C-7.88625 13.731875 -6.7725 13.46375 -5.625 13.1875 C-1.78159049 12.34190981 -1.78159049 12.34190981 0 9 C-1.98 8.34 -3.96 7.68 -6 7 C-4.02 4.69 -2.04 2.38 0 0 Z " fill="#3E6F4A" transform="translate(236,95)"/>
<path d="M0 0 C4.29 0 8.58 0 13 0 C13.85973657 2.57920972 14.28226028 4.67512364 14.60424805 7.34790039 C14.71073166 8.2221315 14.81721527 9.09636261 14.92692566 9.99708557 C15.03740738 10.9377739 15.1478891 11.87846222 15.26171875 12.84765625 C15.37602737 13.81529404 15.490336 14.78293182 15.60810852 15.77989197 C15.84780385 17.82480206 16.08556294 19.86993991 16.3215332 21.9152832 C16.68660964 25.05484315 17.06682295 28.19234825 17.44726562 31.33007812 C17.67802429 33.314995 17.90787312 35.30001791 18.13671875 37.28515625 C18.25327316 38.2278688 18.36982758 39.17058136 18.48991394 40.14186096 C18.58694107 41.01293991 18.6839682 41.88401886 18.78393555 42.78149414 C18.87418503 43.54965958 18.96443451 44.31782501 19.05741882 45.10926819 C19 47 19 47 17 49 C11.66666667 49.33333333 11.66666667 49.33333333 9 48 C9 45.36 9 42.72 9 40 C7.68 40 6.36 40 5 40 C5.020625 40.94875 5.04125 41.8975 5.0625 42.875 C5 46 5 46 4 48 C1.03 48 -1.94 48 -5 48 C-5.11951791 42.04800828 -4.67998119 36.36649108 -3.90625 30.46875 C-3.79526978 29.59222778 -3.68428955 28.71570557 -3.56994629 27.81262207 C-3.21795775 25.04112986 -2.85909562 22.27057938 -2.5 19.5 C-2.25865794 17.60943324 -2.01776806 15.71880869 -1.77734375 13.828125 C-1.19012104 9.21806554 -0.5967365 4.60883722 0 0 Z M6 22 C5.67 26.62 5.34 31.24 5 36 C5.99 36 6.98 36 8 36 C7.67 31.38 7.34 26.76 7 22 C6.67 22 6.34 22 6 22 Z " fill="#2B574E" transform="translate(165,208)"/>
<path d="M0 0 C2.20914 3.31371 2.22481553 4.3446021 2.125 8.1875 C2.10695313 9.08855469 2.08890625 9.98960937 2.0703125 10.91796875 C2.04710938 11.60503906 2.02390625 12.29210937 2 13 C-1.37097383 14.49821059 -3.20442119 15 -7 15 C-8.60725635 11.78548731 -8.05748185 8.56387464 -8 5 C-8.66 5 -9.32 5 -10 5 C-8.94388751 11.8627272 -6.66911976 16.68604866 -2.875 22.4375 C3.40932963 32.55357584 3.40932963 32.55357584 2.6796875 39.04296875 C1.56711403 42.24641305 -0.34642815 43.9936408 -3 46 C-3.33 46.33 -3.66 46.66 -4 47 C-8.90599112 47.55419529 -12.78937787 47.74119722 -17.0625 45.125 C-20.00215063 41.90086705 -20.11724651 40.14522746 -20.0625 35.875 C-20.05347656 34.96492188 -20.04445313 34.05484375 -20.03515625 33.1171875 C-20.02355469 32.41851562 -20.01195313 31.71984375 -20 31 C-15.545 30.505 -15.545 30.505 -11 30 C-10.67 32.97 -10.34 35.94 -10 39 C-9.34 39 -8.68 39 -8 39 C-8.43871178 33.51610272 -9.80221561 30.43563642 -13 26 C-13 25.34 -13 24.68 -13 24 C-13.66 24 -14.32 24 -15 24 C-19.1886418 17.10370046 -21.42648448 11.12703546 -20 3 C-18.32148422 0.00265039 -17.30430556 -1.4153113 -14.1875 -2.8125 C-8.53100732 -3.29734223 -4.65824339 -3.59350205 0 0 Z " fill="#2F5A50" transform="translate(40,210)"/>
<path d="M0 0 C2.99452434 2.24589325 3.81623122 3.44869367 5 7 C5.12781786 9.67394964 5.04391871 12.32095857 5 15 C-0.625 17 -0.625 17 -4 17 C-4.33 13.7 -4.66 10.4 -5 7 C-5.99 7 -6.98 7 -8 7 C-6.59885553 13.65543624 -4.19366802 18.7012511 -0.44140625 24.34375 C3.04944073 29.76837552 5.55506572 34.40228701 5 41 C3.86160599 44.29535107 3.15559808 46.2780592 0.16796875 48.14453125 C-2.21105452 49.08328097 -3.95098049 49.26745904 -6.5 49.25 C-7.2528125 49.25515625 -8.005625 49.2603125 -8.78125 49.265625 C-11.28720818 48.96561592 -12.86747955 48.33966028 -15 47 C-18.20219683 42.19670476 -18.28809717 38.56987857 -18 33 C-15.01787087 31.50893543 -12.28390342 31.88058533 -9 32 C-7.03177114 33.96822886 -7.33751619 37.34808709 -7 40 C-6.34 40 -5.68 40 -5 40 C-6.35935674 34.64025056 -8.21812756 30.4127806 -11.5 25.9375 C-15.78688991 20.09174103 -18.83364596 14.50281366 -18 7 C-17.4375 4.3125 -17.4375 4.3125 -16 2 C-10.6856229 -1.25370026 -6.01578775 -1.73375701 0 0 Z " fill="#2D5950" transform="translate(111,208)"/>
<path d="M0 0 C0.66 0.33 1.32 0.66 2 1 C0.74896484 1.99966797 0.74896484 1.99966797 -0.52734375 3.01953125 C-14.97528187 14.75875012 -26.18087404 28.11853124 -28.80859375 47.12109375 C-28.87175781 47.74113281 -28.93492188 48.36117187 -29 49 C-28.59007813 48.566875 -28.18015625 48.13375 -27.7578125 47.6875 C-27.21898438 47.130625 -26.68015625 46.57375 -26.125 46 C-25.59132813 45.443125 -25.05765625 44.88625 -24.5078125 44.3125 C-23 43 -23 43 -21 43 C-22.40894528 46.22349602 -24.12744505 48.23619606 -26.625 50.6875 C-29.29639773 53.67612621 -30.51593615 55.58282103 -30.625 59.625 C-30.29595687 63.60779283 -29.07682003 66.56525919 -27 70 C-26.690625 70.7425 -26.38125 71.485 -26.0625 72.25 C-24.69548656 74.50155155 -23.36269964 74.87792938 -21 76 C-19.68630493 76.76879486 -18.37388203 77.53976625 -17.0625 78.3125 C-11.31035099 81.5444767 -5.18823807 83.75234011 1 86 C1 86.66 1 87.32 1 88 C-9.70223113 86.0735984 -20.31378931 80.68621069 -28 73 C-28.33 72.34 -28.66 71.68 -29 71 C-27.71222504 88.06301823 -18.25022316 102.56313854 -6 114 C4.16913669 121.91424116 16.17912644 127.50979826 29 129 C28.34 128.54625 27.68 128.0925 27 127.625 C26.34 127.08875 25.68 126.5525 25 126 C25 125.34 25 124.68 25 124 C27.23040612 125.07389924 29.14996013 126.11467539 31.125 127.625 C35.40854636 129.67365261 39.33550724 129.66099092 44 129 C53.28143584 124.53777123 58.26599663 115.18816561 62 106 C63.59591295 101.06848521 64.82801757 96.04641847 66 91 C65.17822266 91.2165625 65.17822266 91.2165625 64.33984375 91.4375 C56.4944582 93.27446832 49.01429447 93.19234307 41 93 C41 91.35 41 89.7 41 88 C41.33 88.99 41.66 89.98 42 91 C45.41714219 90.6925646 48.83360937 90.37816912 52.25 90.0625 C53.21808594 89.97548828 54.18617188 89.88847656 55.18359375 89.79882812 C56.11816406 89.71181641 57.05273438 89.62480469 58.015625 89.53515625 C58.87446289 89.456604 59.73330078 89.37805176 60.61816406 89.29711914 C63.29379433 89.01196356 63.29379433 89.01196356 67 88 C67.66 83.05 68.32 78.1 69 73 C69.66 73 70.32 73 71 73 C70.85879286 74.93784265 70.71187127 76.87526955 70.5625 78.8125 C70.44068359 80.43091797 70.44068359 80.43091797 70.31640625 82.08203125 C70 85 70 85 69 88 C71.64 87.67 74.28 87.34 77 87 C74.23776722 89.76223278 71.79293383 89.57856291 68 90 C68.05414063 90.83015625 68.10828125 91.6603125 68.1640625 92.515625 C67.97159402 96.60328898 66.84686024 99.98176731 65.375 103.75 C65.10357178 104.45374756 64.83214355 105.15749512 64.55249023 105.88256836 C60.91136165 115.05215612 56.39607706 122.39167079 49 129 C61.9400145 126.74302073 73.18811614 121.9466543 83.23046875 113.3828125 C85 112 85 112 88 111 C88.70314956 109.68554083 89.36399766 108.34822967 90 107 C91.2045707 105.52128562 92.43679689 104.06490574 93.6875 102.625 C98.60818221 96.6158305 101.76907818 90.00706169 105 83 C106.3739429 87.12182869 105.14143006 88.51405331 103.25 92.375 C94.8916789 108.81897156 81.15421722 121.08942804 64 128 C45.34726181 133.9159804 24.72017588 134.07104241 7 125 C-12.12159038 114.19984247 -24.98018481 99.29699324 -31 78 C-36.16855859 59.01234791 -32.52085099 40.90218751 -23.33984375 23.83984375 C-18.22464318 15.00449731 -9.16035557 4.58017779 0 0 Z " fill="#629764" transform="translate(131,44)"/>
<path d="M0 0 C7.26 0 14.52 0 22 0 C22 2.31 22 4.62 22 7 C21.67 7.33 21.34 7.66 21 8 C19.35 8 17.7 8 16 8 C16 21.2 16 34.4 16 48 C9 49 9 49 6 48 C6 34.8 6 21.6 6 8 C4.35 8 2.7 8 1 8 C0.67 7.67 0.34 7.34 0 7 C0 4.69 0 2.38 0 0 Z " fill="#2E5A50" transform="translate(128,208)"/>
<path d="M0 0 C-0.59622196 6.31995277 -0.59622196 6.31995277 -2.1875 9 C-4.90653689 10.50015828 -7.03312367 9.56812525 -10 9 C-10.66 9.66 -11.32 10.32 -12 11 C-11.01 12.485 -11.01 12.485 -10 14 C-9.236875 13.505 -8.47375 13.01 -7.6875 12.5 C-5 11 -5 11 -2 11 C-2 13.31 -2 15.62 -2 18 C-1.05125 17.979375 -0.1025 17.95875 0.875 17.9375 C4 18 4 18 6 19 C5.195625 18.360625 4.39125 17.72125 3.5625 17.0625 C0.24587237 13.09872551 0.12047418 10.02705917 0 5 C0.66 4.67 1.32 4.34 2 4 C6.31578947 6.31578947 6.31578947 6.31578947 8 8 C8.15215174 10.28812814 8.22186492 12.58199128 8.25 14.875 C8.27578125 16.13054687 8.3015625 17.38609375 8.328125 18.6796875 C8 22 8 22 6.63671875 23.89453125 C4.40052808 25.40489392 2.687251 25.80337188 0 26 C-2.3125 25.0625 -2.3125 25.0625 -4 24 C-4 22.68 -4 21.36 -4 20 C-5.98 20.66 -7.96 21.32 -10 22 C-8.02 22.99 -6.04 23.98 -4 25 C-5.75 28.875 -5.75 28.875 -8 30 C-11.97288453 30.44143161 -13.53956856 30.32030013 -16.875 28 C-17.57625 27.34 -18.2775 26.68 -19 26 C-14.25 23 -14.25 23 -12 23 C-12 22.01 -12 21.02 -12 20 C-12.721875 20.474375 -13.44375 20.94875 -14.1875 21.4375 C-16.89475226 22.94152903 -18.96194275 23.56599182 -22 24 C-21.56179109 19.44262737 -21.14958831 16.42346555 -18 13 C-18.99 13.33 -19.98 13.66 -21 14 C-20.76291095 7.95422917 -20.76291095 7.95422917 -18.73828125 5.421875 C-15.60054577 2.67141669 -14.25119369 2 -10 2 C-9.67 2.66 -9.34 3.32 -9 4 C-8.2575 3.34 -7.515 2.68 -6.75 2 C-4 0 -4 0 0 0 Z " fill="#89C15F" transform="translate(207,87)"/>
<path d="M0 0 C0.66 1.32 1.32 2.64 2 4 C3.93784265 3.85879286 5.87526955 3.71187127 7.8125 3.5625 C9.43091797 3.44068359 9.43091797 3.44068359 11.08203125 3.31640625 C14.05989905 3.09787539 14.05989905 3.09787539 17 2 C18 3 18 3 18.25 6.8125 C18.19792648 9.45878143 18.03247468 10.92740954 16.9375 13.375 C14.21388131 15.65932535 11.42497355 16.22453429 8 17 C8.66 17 9.32 17 10 17 C9.39741036 24.35159363 9.39741036 24.35159363 7.8125 26.9375 C5.29160556 28.4152657 2.8775389 28.68027346 0 29 C0.33 32.63 0.66 36.26 1 40 C0.01 40.495 0.01 40.495 -1 41 C-5.72859756 37.24137117 -5.72859756 37.24137117 -6.44921875 33.9453125 C-6.56915543 32.40479246 -6.67262405 30.86292358 -6.76171875 29.3203125 C-7.07015737 26.31682828 -8.09212709 23.90053721 -9.234375 21.12890625 C-10.64505663 17.20634764 -11.28634184 13.09723741 -12 9 C-10 11 -10 11 -8 14 C-7.34 14 -6.68 14 -6 14 C-6 12.68 -6 11.36 -6 10 C-5.34 10 -4.68 10 -4 10 C-4.33 11.65 -4.66 13.3 -5 15 C-2.8987054 13.88280593 -2.8987054 13.88280593 -1 12 C-0.55378755 9.29322318 -0.55378755 9.29322318 -0.8125 6.375 C-0.89944742 4.58435323 -0.96788737 2.79246882 -1 1 C-0.67 0.67 -0.34 0.34 0 0 Z " fill="#4A7C4A" transform="translate(154,128)"/>
<path d="M0 0 C3.3 0 6.6 0 10 0 C10 15.84 10 31.68 10 48 C7.03 48 4.06 48 1 48 C0 47 0 47 -0.12025452 45.09544373 C-0.11803391 44.26271439 -0.11581329 43.42998505 -0.11352539 42.57202148 C-0.11344986 41.63112167 -0.11337433 40.69022186 -0.11329651 39.72080994 C-0.10813522 38.69790359 -0.10297394 37.67499725 -0.09765625 36.62109375 C-0.0962413 35.57929459 -0.09482635 34.53749542 -0.09336853 33.46412659 C-0.0877508 30.12188906 -0.0751953 26.77971743 -0.0625 23.4375 C-0.05748728 21.17773534 -0.05292398 18.91796963 -0.04882812 16.65820312 C-0.03777561 11.10544318 -0.0204991 5.55273278 0 0 Z " fill="#2B574D" transform="translate(197,208)"/>
<path d="M0 0 C6.52931812 2.30446522 11.27244537 6.00229939 16 11 C16.33 11.33 16.66 11.66 17 12 C17.66 11.34 18.32 10.68 19 10 C21.42376005 12.42376005 20.23387832 18.62648117 20.25 21.875 C20.270625 22.8753125 20.29125 23.875625 20.3125 24.90625 C20.34939955 32.04631285 19.21738914 38.21907017 17 45 C16.34 45 15.68 45 15 45 C15.66 41.04 16.32 37.08 17 33 C12.74812307 36.37697198 12.74812307 36.37697198 12.8125 39.6875 C12.9053125 40.8321875 12.9053125 40.8321875 13 42 C12 43 12 43 9.625 43.25 C7 43 7 43 5.125 41.75 C4 40 4 40 4.3125 37.8125 C4.539375 37.214375 4.76625 36.61625 5 36 C6.3303125 36.185625 6.3303125 36.185625 7.6875 36.375 C11.30796354 35.9651362 11.62782645 35.75682895 13.8125 33.125 C16.74342202 28.93796854 17.1570228 27.07140567 17.1875 22 C17.20167969 20.9275 17.21585938 19.855 17.23046875 18.75 C17.28585786 15.85546904 17.28585786 15.85546904 15 14 C13.02 16.97 13.02 16.97 11 20 C12.32 20.66 13.64 21.32 15 22 C14.4375 23.9375 14.4375 23.9375 13 26 C9.375 26.75 9.375 26.75 6 27 C6 27.66 6 28.32 6 29 C6.99 29.33 7.98 29.66 9 30 C8.34 31.32 7.68 32.64 7 34 C0.60924751 34.36174071 0.60924751 34.36174071 -2 32.8125 C-3 31 -3 31 -2.6875 28.3125 C-2.3471875 27.1678125 -2.3471875 27.1678125 -2 26 C-0.68 26 0.64 26 2 26 C2 25.34 2 24.68 2 24 C1.34 23.67 0.68 23.34 0 23 C0.99 22.34 1.98 21.68 3 21 C2.236875 21.20625 1.47375 21.4125 0.6875 21.625 C-2 22 -2 22 -5 20 C-4.25531915 12.25531915 -4.25531915 12.25531915 -1 9 C-0.34 9 0.32 9 1 9 C2.9451 11.91765 3.45276317 13.62537285 4 17 C4.7425 16.195625 5.485 15.39125 6.25 14.5625 C8.88840752 12.1039839 9.67485839 11.6181353 13 11 C11.58680023 9.87064804 10.16928595 8.74669374 8.75 7.625 C7.96109375 6.99851562 7.1721875 6.37203125 6.359375 5.7265625 C4.28818811 4.21089263 2.32930503 3.05780366 0 2 C0 1.34 0 0.68 0 0 Z " fill="#619661" transform="translate(221,82)"/>
<path d="M0 0 C1.2065625 0.0309375 1.2065625 0.0309375 2.4375 0.0625 C2.4375 2.0425 2.4375 4.0225 2.4375 6.0625 C-0.8625 6.0625 -4.1625 6.0625 -7.5625 6.0625 C-7.5625 6.7225 -7.5625 7.3825 -7.5625 8.0625 C-8.5525 8.3925 -9.5425 8.7225 -10.5625 9.0625 C-10.5625 11.0425 -10.5625 13.0225 -10.5625 15.0625 C-8.9125 14.7325 -7.2625 14.4025 -5.5625 14.0625 C-5.8925 15.7125 -6.2225 17.3625 -6.5625 19.0625 C-5.5725 19.0625 -4.5825 19.0625 -3.5625 19.0625 C-3.19886364 24.51704545 -3.19886364 24.51704545 -4.8125 26.9375 C-6.5625 28.0625 -6.5625 28.0625 -10.5625 28.0625 C-10.5625 25.4225 -10.5625 22.7825 -10.5625 20.0625 C-11.01625 20.84625 -11.47 21.63 -11.9375 22.4375 C-13.5625 25.0625 -13.5625 25.0625 -15.5625 27.0625 C-16.5525 27.0625 -17.5425 27.0625 -18.5625 27.0625 C-18.52125 28.17625 -18.48 29.29 -18.4375 30.4375 C-18.5625 34.0625 -18.5625 34.0625 -20.5625 36.0625 C-21.5525 36.0625 -22.5425 36.0625 -23.5625 36.0625 C-23.76336443 32.34650809 -23.7144437 31.29041555 -21.5625 28.0625 C-21.8925 28.0625 -22.2225 28.0625 -22.5625 28.0625 C-22.8925 24.7625 -23.2225 21.4625 -23.5625 18.0625 C-29.03176127 20.9439281 -29.03176127 20.9439281 -33.5625 25.0625 C-33.2325 23.0825 -32.9025 21.1025 -32.5625 19.0625 C-31.9025 19.0625 -31.2425 19.0625 -30.5625 19.0625 C-30.2325 15.7625 -29.9025 12.4625 -29.5625 9.0625 C-28.2425 9.0625 -26.9225 9.0625 -25.5625 9.0625 C-25.8925 11.0425 -26.2225 13.0225 -26.5625 15.0625 C-22.96622208 15.38943436 -21.18614112 15.53444463 -18.25 13.3125 C-16.61041095 11.12638127 -15.94455437 9.73688062 -15.5625 7.0625 C-16.8825 6.7325 -18.2025 6.4025 -19.5625 6.0625 C-17.5825 6.0625 -15.6025 6.0625 -13.5625 6.0625 C-13.5625 5.0725 -13.5625 4.0825 -13.5625 3.0625 C-12.85222656 2.92972656 -12.14195312 2.79695313 -11.41015625 2.66015625 C-10.49105469 2.48355469 -9.57195312 2.30695312 -8.625 2.125 C-7.70847656 1.95097656 -6.79195312 1.77695312 -5.84765625 1.59765625 C-3.05499644 0.94364874 -2.95318379 0.07202887 0 0 Z " fill="#396A4B" transform="translate(151.5625,54.9375)"/>
<path d="M0 0 C0.53625 0.32484375 1.0725 0.6496875 1.625 0.984375 C4.55496862 2.23732211 6.82073547 2.26589632 10 2.25 C11.03125 2.25515625 12.0625 2.2603125 13.125 2.265625 C15.94597278 2.00499165 17.60145718 1.45296344 20 0 C19.34 1.65 18.68 3.3 18 5 C18.66 5.20625 19.32 5.4125 20 5.625 C24.37049271 7.62814249 29.78923947 10.57847894 32 15 C30.9275 15.2475 29.855 15.495 28.75 15.75 C25.00350563 16.99883146 23.47926118 18.02488658 21 21 C20.34 18.03 19.68 15.06 19 12 C17.35 13.65 15.7 15.3 14 17 C13.443125 16.71125 12.88625 16.4225 12.3125 16.125 C9.91505355 14.9586747 7.48403061 13.9660119 5 13 C5.00911192 19.08293209 5.00911192 19.08293209 8.0625 23.9375 C8.701875 24.288125 9.34125 24.63875 10 25 C10 25.66 10 26.32 10 27 C7.36 26.67 4.72 26.34 2 26 C2 23.69 2 21.38 2 19 C-2.54170996 20.90884692 -2.54170996 20.90884692 -7 23 C-7 22.01 -7 21.02 -7 20 C-7.66 19.67 -8.32 19.34 -9 19 C-8.01 17.68 -7.02 16.36 -6 15 C-6 15.66 -6 16.32 -6 17 C-3.12635209 17.41746608 -3.12635209 17.41746608 0 17 C2.56264345 13.90715445 3.43761722 10.93667948 4 7 C1.69 7 -0.62 7 -3 7 C-3.33 5.68 -3.66 4.36 -4 3 C-3.01 2.67 -2.02 2.34 -1 2 C-0.67 1.34 -0.34 0.68 0 0 Z " fill="#306051" transform="translate(203,79)"/>
<path d="M0 0 C0.99 0.66 1.98 1.32 3 2 C3.3125 5.5 3.3125 5.5 3 9 C2.34 9.66 1.68 10.32 1 11 C0.35232207 13.57061311 0.35232207 13.57061311 0 16 C1.32 15.34 2.64 14.68 4 14 C4 11.36 4 8.72 4 6 C4.78375 5.855625 5.5675 5.71125 6.375 5.5625 C8.96421018 5.12201075 8.96421018 5.12201075 11 4 C11 5.32 11 6.64 11 8 C11.350625 8.639375 11.70125 9.27875 12.0625 9.9375 C13.32808952 12.72179695 13.04684248 14.15857041 12 17 C10 18.1875 10 18.1875 8 19 C7.67 19.66 7.34 20.32 7 21 C8.32 20.67 9.64 20.34 11 20 C10.34 22.64 9.68 25.28 9 28 C8.360625 27.855625 7.72125 27.71125 7.0625 27.5625 C4.16279641 26.97038404 4.16279641 26.97038404 1.83984375 26.8515625 C-1.9117731 26.5885109 -4.60174137 26.19912931 -8 24.5 C-10.86761519 20.91548102 -10.89456492 17.48578344 -11 13 C-9.68 12.67 -8.36 12.34 -7 12 C-7.33 14.31 -7.66 16.62 -8 19 C-6.35 18.34 -4.7 17.68 -3 17 C-2.93941406 16.36191406 -2.87882812 15.72382812 -2.81640625 15.06640625 C-2.73261719 14.24011719 -2.64882812 13.41382812 -2.5625 12.5625 C-2.48128906 11.73878906 -2.40007812 10.91507813 -2.31640625 10.06640625 C-2 8 -2 8 -1 7 C-0.63239269 4.67182036 -0.29758419 2.3381615 0 0 Z " fill="#30604F" transform="translate(128,75)"/>
<path d="M0 0 C1.15242188 0.10183594 2.30484375 0.20367187 3.4921875 0.30859375 C4.36101562 0.39238281 5.22984375 0.47617188 6.125 0.5625 C6.17895478 2.18713842 6.21777195 3.81228541 6.25 5.4375 C6.27320313 6.34242187 6.29640625 7.24734375 6.3203125 8.1796875 C6.125 10.5625 6.125 10.5625 4.125 12.5625 C1.4453125 12.86328125 1.4453125 12.86328125 -1.75 12.875 C-2.79929688 12.89175781 -3.84859375 12.90851563 -4.9296875 12.92578125 C-8.16198414 12.52710275 -9.50495258 11.73218109 -11.875 9.5625 C-11.875 10.2225 -11.875 10.8825 -11.875 11.5625 C-13.195 11.5625 -14.515 11.5625 -15.875 11.5625 C-15.875 10.9025 -15.875 10.2425 -15.875 9.5625 C-16.865 9.5625 -17.855 9.5625 -18.875 9.5625 C-18.39970993 5.28488937 -16.1081694 3.22088373 -12.875 0.5625 C-8.45445685 -0.51905536 -4.51091115 -0.41426735 0 0 Z " fill="#51854A" transform="translate(214.875,69.4375)"/>
<path d="M0 0 C0.99 0 1.98 0 3 0 C3 1.65 3 3.3 3 5 C4.65 4.67 6.3 4.34 8 4 C7.67 5.65 7.34 7.3 7 9 C7.99 9 8.98 9 10 9 C10.36363636 14.45454545 10.36363636 14.45454545 8.75 16.875 C7 18 7 18 3 18 C3 15.36 3 12.72 3 10 C2.54625 10.78375 2.0925 11.5675 1.625 12.375 C0 15 0 15 -2 17 C-2.99 17 -3.98 17 -5 17 C-4.95875 18.11375 -4.9175 19.2275 -4.875 20.375 C-5 24 -5 24 -7 26 C-7.99 26 -8.98 26 -10 26 C-10.125 23.625 -10.125 23.625 -10 21 C-9.34 20.34 -8.68 19.68 -8 19 C-7.87625 17.72125 -7.7525 16.4425 -7.625 15.125 C-7.21610917 11.05799659 -6.03953919 9.77134456 -3 7 C-1.81427772 4.71324989 -0.92709385 2.410444 0 0 Z " fill="#619659" transform="translate(138,65)"/>
<path d="M0 0 C0.99 0 1.98 0 3 0 C3 0.99 3 1.98 3 3 C2.34 3.33 1.68 3.66 1 4 C0.34227572 7.02934491 0.34227572 7.02934491 0 10 C0.99 10 1.98 10 3 10 C3 10.66 3 11.32 3 12 C3.99 12.33 4.98 12.66 6 13 C5.01 13 4.02 13 3 13 C3.495 14.485 3.495 14.485 4 16 C6.31 16.33 8.62 16.66 11 17 C10.46375 17.2475 9.9275 17.495 9.375 17.75 C6.43575748 19.29696975 3.74245592 21.13014369 1 23 C1 22.01 1 21.02 1 20 C-1.31 20.66 -3.62 21.32 -6 22 C-6 21.01 -6 20.02 -6 19 C-6.99 19 -7.98 19 -9 19 C-7.92598892 16.08482708 -7.22189824 14.22189824 -5 12 C-2.375 11.875 -2.375 11.875 0 12 C-0.33 10.35 -0.66 8.7 -1 7 C-11.32724245 5.60222605 -21.59201341 4.56825214 -32 4 C-32 3.34 -32 2.68 -32 2 C-9.19872014 1.79361047 -9.19872014 1.79361047 0 3 C0 2.01 0 1.02 0 0 Z " fill="#3A6B4E" transform="translate(196,69)"/>
<path d="M0 0 C0.19521275 3.3836876 0.34829156 6.14088083 -0.9375 9.3125 C-3.75340154 11.61641944 -6.49986234 11.99269461 -10.0390625 12.60546875 C-11.99534214 12.81076086 -11.99534214 12.81076086 -13 14 C-14.66617115 14.04063832 -16.33388095 14.042721 -18 14 C-18 10 -18 10 -17 8 C-16.34 8 -15.68 8 -15 8 C-15.061875 7.21625 -15.12375 6.4325 -15.1875 5.625 C-15.125625 4.75875 -15.06375 3.8925 -15 3 C-12 1 -12 1 -8 1 C-8 1.66 -8 2.32 -8 3 C-7.236875 2.505 -6.47375 2.01 -5.6875 1.5 C-3 0 -3 0 0 0 Z " fill="#639951" transform="translate(172,132)"/>
<path d="M0 0 C0.53625 0.474375 1.0725 0.94875 1.625 1.4375 C1.295 2.4275 0.965 3.4175 0.625 4.4375 C-1.9375 5.625 -1.9375 5.625 -4.375 6.4375 C-3.715 6.97375 -3.055 7.51 -2.375 8.0625 C-0.375 10.4375 -0.375 10.4375 -0.125 13.6875 C-0.2075 14.595 -0.29 15.5025 -0.375 16.4375 C-3.63642015 16.1579497 -5.39802699 15.42179978 -8.125 13.5625 C-10.9980107 9.57220737 -11.01423841 6.5874825 -11.13671875 1.765625 C-11.21535156 0.99734375 -11.29398438 0.2290625 -11.375 -0.5625 C-12.035 -0.8925 -12.695 -1.2225 -13.375 -1.5625 C-8.43392006 -2.87043293 -4.36023124 -2.86857318 0 0 Z " fill="#8FC764" transform="translate(219.375,115.5625)"/>
<path d="M0 0 C1.423125 0.2784375 1.423125 0.2784375 2.875 0.5625 C5.89868793 1.28686632 5.89868793 1.28686632 8 0 C10 1.25 10 1.25 12 3 C12 4.32 12 5.64 12 7 C11.01 7.33 10.02 7.66 9 8 C9 9.32 9 10.64 9 12 C7.35 12 5.7 12 4 12 C4 13.32 4 14.64 4 16 C1.5625 15.625 1.5625 15.625 -1 15 C-2.38226016 12.23547967 -2.09525387 9.9538637 -2.0625 6.875 C-2.05347656 5.77929688 -2.04445312 4.68359375 -2.03515625 3.5546875 C-2.02355469 2.71164063 -2.01195312 1.86859375 -2 1 C-0.02 1.99 -0.02 1.99 2 3 C1.34 2.01 0.68 1.02 0 0 Z " fill="#6FA556" transform="translate(214,133)"/>
<path d="M0 0 C3.46204548 3.46204548 3.43161799 4.13630319 3.4375 8.8125 C3.28458893 15.14301818 1.53121019 18.28798908 -2.75 22.875 C-3.1625 23.24625 -3.575 23.6175 -4 24 C-4.99 23.67 -5.98 23.34 -7 23 C-7 21.02 -7 19.04 -7 17 C-7.66 16.67 -8.32 16.34 -9 16 C-9 15.34 -9 14.68 -9 14 C-7.329375 13.5978125 -7.329375 13.5978125 -5.625 13.1875 C-1.78159049 12.34190981 -1.78159049 12.34190981 0 9 C-1.98 8.34 -3.96 7.68 -6 7 C-4.02 4.69 -2.04 2.38 0 0 Z " fill="#36674F" transform="translate(236,95)"/>
<path d="M0 0 C0.66 0 1.32 0 2 0 C2 1.98 2 3.96 2 6 C3.65 6 5.3 6 7 6 C5.125 10.875 5.125 10.875 4 12 C2.00041636 12.04080783 -0.00045254 12.04254356 -2 12 C-2.33 13.32 -2.66 14.64 -3 16 C-4.32 16.33 -5.64 16.66 -7 17 C-7.25 10.375 -7.25 10.375 -5 7 C-4.34 7 -3.68 7 -3 7 C-2.814375 5.824375 -2.814375 5.824375 -2.625 4.625 C-2 2 -2 2 0 0 Z " fill="#4A7C4F" transform="translate(156,63)"/>
<path d="M0 0 C1.15242187 0.10183594 2.30484375 0.20367187 3.4921875 0.30859375 C4.36101562 0.39238281 5.22984375 0.47617188 6.125 0.5625 C5.795 2.5425 5.465 4.5225 5.125 6.5625 C3.9184375 6.5315625 3.9184375 6.5315625 2.6875 6.5 C0.19145115 6.26616379 0.19145115 6.26616379 -0.875 7.5625 C-2.87458364 7.60330783 -4.87545254 7.60504356 -6.875 7.5625 C-6.875 6.5725 -6.875 5.5825 -6.875 4.5625 C-9.185 4.8925 -11.495 5.2225 -13.875 5.5625 C-13.545 3.9125 -13.215 2.2625 -12.875 0.5625 C-8.41295824 -0.3529645 -4.52954615 -0.41597873 0 0 Z " fill="#609454" transform="translate(214.875,69.4375)"/>
<path d="M0 0 C2.31 0.33 4.62 0.66 7 1 C6.4375 2.9375 6.4375 2.9375 5 5 C1.375 5.75 1.375 5.75 -2 6 C-2 6.66 -2 7.32 -2 8 C-1.01 8.33 -0.02 8.66 1 9 C0.34 10.32 -0.32 11.64 -1 13 C-7.41868512 13.3633218 -7.41868512 13.3633218 -10 11.75 C-11 10 -11 10 -10.6875 7.8125 C-10.3471875 6.9153125 -10.3471875 6.9153125 -10 6 C-8.35 5.67 -6.7 5.34 -5 5 C-5 4.34 -5 3.68 -5 3 C-3.35 2.67 -1.7 2.34 0 2 C0 1.34 0 0.68 0 0 Z " fill="#9ED866" transform="translate(229,103)"/>
<path d="M0 0 C0.845625 0.804375 1.69125 1.60875 2.5625 2.4375 C5.8515158 5.21628662 8.68629604 5.74117776 13 6 C12.6875 8.375 12.6875 8.375 12 11 C9 13 9 13 5 13 C5 12.34 5 11.68 5 11 C4.01 11.33 3.02 11.66 2 12 C1.01 11.67 0.02 11.34 -1 11 C-1.73046875 8.93359375 -1.73046875 8.93359375 -2.1875 6.4375 C-2.34605469 5.61121094 -2.50460938 4.78492187 -2.66796875 3.93359375 C-2.77753906 3.29550781 -2.88710937 2.65742187 -3 2 C-2.01 2 -1.02 2 0 2 C0 1.34 0 0.68 0 0 Z " fill="#4C7E50" transform="translate(117,95)"/>
<path d="M0 0 C0.36601307 7.4422658 0.36601307 7.4422658 -1.3125 10 C-3 11 -3 11 -6 11 C-5.95875 12.11375 -5.9175 13.2275 -5.875 14.375 C-6 18 -6 18 -8 20 C-8.99 20 -9.98 20 -11 20 C-11.125 17.625 -11.125 17.625 -11 15 C-10.34 14.34 -9.68 13.68 -9 13 C-8.9175 11.741875 -8.835 10.48375 -8.75 9.1875 C-8.41786285 5.74706045 -7.71152831 4.23852514 -5.0625 2 C-2 0 -2 0 0 0 Z " fill="#9AD367" transform="translate(139,71)"/>
<path d="M0 0 C2.625 -0.1875 2.625 -0.1875 5 0 C4.835 0.99 4.67 1.98 4.5 3 C4.07808587 5.80515883 4.0096255 8.41808049 4.125 11.25 C4 15 4 15 2.625 17 C1 18 1 18 -1 18 C-0.67 16.35 -0.34 14.7 0 13 C-0.66 13 -1.32 13 -2 13 C-2 14.32 -2 15.64 -2 17 C-2.66 17 -3.32 17 -4 17 C-4.3125 14.3125 -4.3125 14.3125 -4 11 C-1.5 8.125 -1.5 8.125 1 6 C0.01 5.01 -0.98 4.02 -2 3 C-1.34 2.01 -0.68 1.02 0 0 Z " fill="#9BD568" transform="translate(150,125)"/>
<path d="M0 0 C2 2 2 2 4 5 C4.66 5 5.32 5 6 5 C6 3.68 6 2.36 6 1 C6.66 1 7.32 1 8 1 C8 2.98 8 4.96 8 7 C7.34 7 6.68 7 6 7 C6 7.66 6 8.32 6 9 C7.32 9.66 8.64 10.32 10 11 C10 13.31 10 15.62 10 18 C8.125 18.625 8.125 18.625 6 19 C3.29259338 16.29259338 2.8989446 13.7373234 1.875 10.0625 C1.52179688 8.81597656 1.16859375 7.56945312 0.8046875 6.28515625 C0 3 0 3 0 0 Z " fill="#61965A" transform="translate(142,137)"/>
<path d="M0 0 C0.29357791 3.05321024 0.43479122 5.95646143 0 9 C-2.375 11.5625 -2.375 11.5625 -5 13 C-5.66 13 -6.32 13 -7 13 C-7 12.34 -7 11.68 -7 11 C-7.66 11 -8.32 11 -9 11 C-9.375 8.3125 -9.375 8.3125 -9 5 C-6.48922213 1.91533005 -4.09455239 0 0 0 Z " fill="#9BD568" transform="translate(128,73)"/>
<path d="M0 0 C0.66 0.33 1.32 0.66 2 1 C2.2734375 2.9609375 2.2734375 2.9609375 2.375 5.375 C2.60836967 9.14483807 2.60836967 9.14483807 5.0625 11.9375 C5.701875 12.288125 6.34125 12.63875 7 13 C7 13.66 7 14.32 7 15 C4.36 14.67 1.72 14.34 -1 14 C-1 11.69 -1 9.38 -1 7 C-5.54170996 8.90884692 -5.54170996 8.90884692 -10 11 C-10 10.01 -10 9.02 -10 8 C-10.66 7.67 -11.32 7.34 -12 7 C-11.01 5.68 -10.02 4.36 -9 3 C-9 3.66 -9 4.32 -9 5 C-6.12635209 5.41746608 -6.12635209 5.41746608 -3 5 C-1.0645852 2.60943058 -1.0645852 2.60943058 0 0 Z " fill="#5F934E" transform="translate(206,91)"/>
<path d="M0 0 C-0.6056338 7.38873239 -0.6056338 7.38873239 -2.25 9.9375 C-4.45538602 11.27648437 -6.45889061 11.65660684 -9 12 C-9.8125 8.75 -9.8125 8.75 -10 5 C-7.11955354 1.95952874 -4.31917544 0 0 0 Z " fill="#87BE61" transform="translate(164,145)"/>
<path d="M0 0 C7.06049149 2.03969754 7.06049149 2.03969754 9 5 C9.6875 8.6875 9.6875 8.6875 10 12 C2.39491917 10.56120092 2.39491917 10.56120092 0.8125 8.3125 C-0.19313465 5.45030907 -0.13689641 3.01172092 0 0 Z " fill="#8DC662" transform="translate(220,122)"/>
<path d="M0 0 C-0.48 5.4 -0.48 5.4 -2.625 7.875 C-5.83105694 9.39365855 -8.50045311 9.20189694 -12 9 C-9.27141418 1.98363645 -7.72442717 -0.34330787 0 0 Z " fill="#86BF60" transform="translate(136,62)"/>
<path d="M0 0 C2 1.375 2 1.375 4 3 C4 3.66 4 4.32 4 5 C5.32 5 6.64 5 8 5 C10.29013653 8.4352048 10.17842973 9.985331 10 14 C6.60601966 13.7090874 4.96886249 12.97716583 2.1875 10.9375 C-0.77525245 6.95894672 -0.4116201 4.85711724 0 0 Z " fill="#88C05D" transform="translate(209,118)"/>
<path d="M0 0 C1.2065625 0.0309375 1.2065625 0.0309375 2.4375 0.0625 C2.4375 2.0425 2.4375 4.0225 2.4375 6.0625 C-2.5125 6.3925 -7.4625 6.7225 -12.5625 7.0625 C-11.5625 3.0625 -11.5625 3.0625 -10.5625 2.0625 C-8.22916667 1.72916667 -5.89583333 1.39583333 -3.5625 1.0625 C-2.5625 0.0625 -2.5625 0.0625 0 0 Z " fill="#3A6B49" transform="translate(151.5625,54.9375)"/>
<path d="M0 0 C1.32 0.33 2.64 0.66 4 1 C3.01 1.66 2.02 2.32 1 3 C0.50540839 5.72634882 0.50540839 5.72634882 0.5234375 8.92578125 C0.4925 10.11494141 0.4615625 11.30410156 0.4296875 12.52929688 C0.41164063 13.77775391 0.39359375 15.02621094 0.375 16.3125 C0.32383787 18.7670031 0.26927953 21.22143832 0.2109375 23.67578125 C0.19337402 24.76802002 0.17581055 25.86025879 0.15771484 26.9855957 C0.01248682 29.76133941 -0.37471408 32.29659481 -1 35 C-1.33 35 -1.66 35 -2 35 C-2.04944705 30.49765627 -2.08574161 25.9954707 -2.10986328 21.49291992 C-2.11991935 19.96131639 -2.133566 18.42973205 -2.15087891 16.89819336 C-2.17514498 14.69640364 -2.18648688 12.49486781 -2.1953125 10.29296875 C-2.20563507 9.60849167 -2.21595764 8.92401459 -2.22659302 8.21879578 C-2.22745382 4.56938339 -2.08567666 3.12851498 0 0 Z " fill="#36625A" transform="translate(270,213)"/>
<path d="M0 0 C1.6065676 0.25620684 3.2102483 0.53055871 4.8125 0.8125 C6.15248047 1.03873047 6.15248047 1.03873047 7.51953125 1.26953125 C11.50570245 2.44341159 12.73527185 4.60290778 15 8 C8.11921989 7.35992743 1.44379546 5.47479101 -5 3 C-5.33 2.34 -5.66 1.68 -6 1 C-4.02 1 -2.04 1 0 1 C0 0.67 0 0.34 0 0 Z " fill="#2A5547" transform="translate(145,172)"/>
<path d="M0 0 C1.423125 0.2784375 1.423125 0.2784375 2.875 0.5625 C5.89868793 1.28686632 5.89868793 1.28686632 8 0 C10 1.25 10 1.25 12 3 C12 4.32 12 5.64 12 7 C11.01 7 10.02 7 9 7 C8.67 8.32 8.34 9.64 8 11 C6.68 10.67 5.36 10.34 4 10 C3.566875 8.3603125 3.566875 8.3603125 3.125 6.6875 C2.18106796 2.95986155 2.18106796 2.95986155 0 0 Z " fill="#9BD664" transform="translate(214,133)"/>
<path d="M0 0 C3.29158865 -0.05905417 6.58303756 -0.09394375 9.875 -0.125 C10.7928125 -0.14175781 11.710625 -0.15851563 12.65625 -0.17578125 C19.00812606 -0.22051277 24.82610036 0.51148437 31 2 C31 2.66 31 3.32 31 4 C20.77 3.34 10.54 2.68 0 2 C0 1.34 0 0.68 0 0 Z " fill="#5B905E" transform="translate(164,71)"/>
<path d="M0 0 C0.99 0.33 1.98 0.66 3 1 C3 1.66 3 2.32 3 3 C5.07553648 3.5534764 6.84365964 4 9 4 C9.99 4 10.98 4 12 4 C11.67 5.65 11.34 7.3 11 9 C8.69 9.33 6.38 9.66 4 10 C3.67 8.35 3.34 6.7 3 5 C1.68 4.67 0.36 4.34 -1 4 C-0.67 2.68 -0.34 1.36 0 0 Z " fill="#96CF67" transform="translate(144,108)"/>
<path d="M0 0 C0.66 0 1.32 0 2 0 C3.58512383 3.17024765 3.42372144 6.54667028 3 10 C1.5 12 1.5 12 0 13 C-1.32 12.34 -2.64 11.68 -4 11 C-3.25531915 3.25531915 -3.25531915 3.25531915 0 0 Z " fill="#96CE63" transform="translate(220,91)"/>
<path d="M0 0 C0.25 3.3125 0.25 3.3125 0 7 C-1.8125 9 -1.8125 9 -4 10 C-4.99 9.67 -5.98 9.34 -7 9 C-7.66 9 -8.32 9 -9 9 C-8.8125 6.1875 -8.8125 6.1875 -8 3 C-5.11373339 0.72136847 -3.6952982 0 0 0 Z " fill="#9ED966" transform="translate(172,132)"/>
<path d="M0 0 C-0.60335782 6.39559286 -0.60335782 6.39559286 -2.3125 9 C-4 10 -4 10 -6.1875 9.6875 C-6.785625 9.460625 -7.38375 9.23375 -8 9 C-8 8.67 -8 8.34 -8 8 C-8.32380126 6.66431979 -8.65657551 5.33076989 -9 4 C-4.5 0 -4.5 0 0 0 Z " fill="#98D163" transform="translate(207,87)"/>
<path d="M0 0 C0.33 0 0.66 0 1 0 C1.33 1.65 1.66 3.3 2 5 C2.66 4.34 3.32 3.68 4 3 C4.33 3.99 4.66 4.98 5 6 C6.99665314 7.68538601 6.99665314 7.68538601 9 9 C8.01 9 7.02 9 6 9 C6 9.66 6 10.32 6 11 C6.66 11.33 7.32 11.66 8 12 C5.69 12 3.38 12 1 12 C1 12.66 1 13.32 1 14 C1.66 14.33 2.32 14.66 3 15 C0.69 15 -1.62 15 -4 15 C-2.68 14.67 -1.36 14.34 0 14 C0 13.34 0 12.68 0 12 C-0.66 11.67 -1.32 11.34 -2 11 C-1.01 10.34 -0.02 9.68 1 9 C0.34 8.34 -0.32 7.68 -1 7 C-0.625 3.375 -0.625 3.375 0 0 Z " fill="#8DC55F" transform="translate(223,94)"/>
<path d="M0 0 C0.33 0 0.66 0 1 0 C1.08720919 3.58317958 1.14046112 7.16608567 1.1875 10.75 C1.22520508 12.27367187 1.22520508 12.27367187 1.26367188 13.828125 C1.27333984 14.8078125 1.28300781 15.7875 1.29296875 16.796875 C1.3086792 17.69760742 1.32438965 18.59833984 1.34057617 19.52636719 C0.93761772 22.45308763 -0.0655403 23.81341349 -2 26 C-2.05814085 22.41673499 -2.09364357 18.83359162 -2.125 15.25 C-2.14175781 14.23421875 -2.15851563 13.2184375 -2.17578125 12.171875 C-2.18222656 11.1921875 -2.18867188 10.2125 -2.1953125 9.203125 C-2.20578613 8.30239258 -2.21625977 7.40166016 -2.22705078 6.47363281 C-1.98721676 3.86073144 -1.32312064 2.24335334 0 0 Z " fill="#1C3C36" transform="translate(234,225)"/>
<path d="M0 0 C0 0.66 0 1.32 0 2 C1.32 2.33 2.64 2.66 4 3 C1.89936424 3.69821417 -0.20565737 4.38324472 -2.3125 5.0625 C-3.48425781 5.44535156 -4.65601563 5.82820312 -5.86328125 6.22265625 C-9 7 -9 7 -12 6 C-11.05275873 3.63189682 -10.34708866 2.24792047 -8.25 0.75 C-5.42246362 -0.19251213 -2.96006696 -0.1345485 0 0 Z " fill="#295248" transform="translate(197,172)"/>
<path d="M0 0 C1.91015625 0.1328125 1.91015625 0.1328125 3.91015625 1.1328125 C3.66015625 3.0078125 3.66015625 3.0078125 2.91015625 5.1328125 C0.4117503 7.00661696 -0.72303541 7.18283182 -3.83984375 6.7578125 C-4.58234375 6.5515625 -5.32484375 6.3453125 -6.08984375 6.1328125 C-6.08984375 5.1428125 -6.08984375 4.1528125 -6.08984375 3.1328125 C-5.09984375 3.1328125 -4.10984375 3.1328125 -3.08984375 3.1328125 C-4.40984375 2.4728125 -5.72984375 1.8128125 -7.08984375 1.1328125 C-5.19099279 -0.76603846 -2.51736472 0.00913744 0 0 Z " fill="#9AD465" transform="translate(211.08984375,105.8671875)"/>
<path d="M0 0 C8.58 0 17.16 0 26 0 C26 0.33 26 0.66 26 1 C20.63904667 2.12862175 15.44693314 2.09688221 10 2 C10 2.66 10 3.32 10 4 C3.375 5.25 3.375 5.25 0 3 C0 2.01 0 1.02 0 0 Z " fill="#32614E" transform="translate(157,175)"/>
<path d="M0 0 C0.99 0 1.98 0 3 0 C3.33 0.66 3.66 1.32 4 2 C4.33 1.67 4.66 1.34 5 1 C6.66617115 0.95936168 8.33388095 0.957279 10 1 C10 1.66 10 2.32 10 3 C10.99 3 11.98 3 13 3 C13 3.99 13 4.98 13 6 C8.25 5.125 8.25 5.125 6 4 C6 4.66 6 5.32 6 6 C4.68 6 3.36 6 2 6 C2 5.34 2 4.68 2 4 C1.01 4 0.02 4 -1 4 C-0.67 2.68 -0.34 1.36 0 0 Z " fill="#89C263" transform="translate(197,75)"/>
<path d="M0 0 C1.65 0 3.3 0 5 0 C3.7934375 1.175625 3.7934375 1.175625 2.5625 2.375 C-0.89513149 6.43820536 -0.88796107 10.84620904 -1 16 C-2.02224303 13.97248063 -3.02080058 11.95285202 -3.9375 9.875 C-4.99740267 7.67642241 -4.99740267 7.67642241 -8 6 C-7.01 5.01 -6.02 4.02 -5 3 C-4.01 3.33 -3.02 3.66 -2 4 C-1.34 2.68 -0.68 1.36 0 0 Z " fill="#3B6D49" transform="translate(147,130)"/>
<path d="M0 0 C1.61841797 0.08701172 1.61841797 0.08701172 3.26953125 0.17578125 C4.35621094 0.22089844 5.44289062 0.26601562 6.5625 0.3125 C7.39394531 0.37050781 8.22539062 0.42851562 9.08203125 0.48828125 C9.08203125 0.81828125 9.08203125 1.14828125 9.08203125 1.48828125 C5.45203125 1.48828125 1.82203125 1.48828125 -1.91796875 1.48828125 C-2.24796875 2.80828125 -2.57796875 4.12828125 -2.91796875 5.48828125 C-3.90796875 5.48828125 -4.89796875 5.48828125 -5.91796875 5.48828125 C-3.7352554 0.62504274 -3.7352554 0.62504274 0 0 Z M-5.91796875 6.48828125 C-6.57796875 7.14828125 -7.23796875 7.80828125 -7.91796875 8.48828125 C-8.56564668 11.05889436 -8.56564668 11.05889436 -8.91796875 13.48828125 C-9.57796875 13.48828125 -10.23796875 13.48828125 -10.91796875 13.48828125 C-10.91796875 11.83828125 -10.91796875 10.18828125 -10.91796875 8.48828125 C-12.56796875 8.81828125 -14.21796875 9.14828125 -15.91796875 9.48828125 C-13.93102585 5.51439546 -9.83557984 6.40122323 -5.91796875 6.48828125 Z " fill="#346449" transform="translate(174.91796875,136.51171875)"/>
<path d="M0 0 C2.46800047 1.15173355 4.04783565 2.04783565 6 4 C5.54545455 9.45454545 5.54545455 9.45454545 3 12 C3 11.34 3 10.68 3 10 C2.34 10 1.68 10 1 10 C-0.60725635 6.78548731 -0.05748185 3.56387464 0 0 Z " fill="#93CD66" transform="translate(141,124)"/>
<path d="M0 0 C0.33 0.66 0.66 1.32 1 2 C1.99 2 2.98 2 4 2 C4.144375 2.804375 4.28875 3.60875 4.4375 4.4375 C4.74135249 6.92103706 4.74135249 6.92103706 6 8 C8.67058851 8.14115161 11.32432238 8.04247107 14 8 C14 8.99 14 9.98 14 11 C13.01 11 12.02 11 11 11 C10.67 11.99 10.34 12.98 10 14 C9.34 13.34 8.68 12.68 8 12 C7.01 12 6.02 12 5 12 C5 11.34 5 10.68 5 10 C3.37373596 8.61767557 1.7074998 7.28062485 0 6 C0.66 6 1.32 6 2 6 C2 5.01 2 4.02 2 3 C1.01 2.67 0.02 2.34 -1 2 C-0.67 1.34 -0.34 0.68 0 0 Z " fill="#497B4D" transform="translate(215,107)"/>
<path d="M0 0 C1.32 0.33 2.64 0.66 4 1 C3.67 2.32 3.34 3.64 3 5 C3.66 5.33 4.32 5.66 5 6 C4.01 6 3.02 6 2 6 C2.04125 7.11375 2.0825 8.2275 2.125 9.375 C2 13 2 13 0 15 C-0.99 15 -1.98 15 -3 15 C-3.125 12.625 -3.125 12.625 -3 10 C-2.34 9.34 -1.68 8.68 -1 8 C-0.54188325 6.02764667 -0.54188325 6.02764667 -0.375 3.875 C-0.25125 2.59625 -0.1275 1.3175 0 0 Z " fill="#87BF63" transform="translate(131,76)"/>
<path d="M0 0 C4.455 1.98 4.455 1.98 9 4 C9.33 3.01 9.66 2.02 10 1 C10.33 2.65 10.66 4.3 11 6 C9 7 9 7 6 7 C6 7.99 6 8.98 6 10 C5.01 9.01 4.02 8.02 3 7 C2.34 8.32 1.68 9.64 1 11 C0.67 7.37 0.34 3.74 0 0 Z " fill="#4B7F49" transform="translate(210,128)"/>
<path d="M0 0 C2.625 0.375 2.625 0.375 5 1 C4.979375 2.0725 4.95875 3.145 4.9375 4.25 C4.9857984 7.14790424 5.13155885 9.28612141 6 12 C7.32 12.33 8.64 12.66 10 13 C10 13.99 10 14.98 10 16 C4.51449059 13.19629519 4.51449059 13.19629519 3.0390625 9.765625 C2.5646573 8.16386982 2.12904322 6.54996874 1.73828125 4.92578125 C1.49464844 4.29027344 1.25101563 3.65476562 1 3 C0.01 2.67 -0.98 2.34 -2 2 C-1.34 1.34 -0.68 0.68 0 0 Z " fill="#3E7045" transform="translate(216,120)"/>
<path d="M0 0 C0.99 0.33 1.98 0.66 3 1 C3.6875 3.8125 3.6875 3.8125 4 7 C2.5625 8.875 2.5625 8.875 1 10 C0.01 9.67 -0.98 9.34 -2 9 C-2.125 5.625 -2.125 5.625 -2 2 C-1.34 1.34 -0.68 0.68 0 0 Z " fill="#8AC35E" transform="translate(137,84)"/>
<path d="M0 0 C1.32 0.33 2.64 0.66 4 1 C4.33 2.32 4.66 3.64 5 5 C3.7934375 4.9690625 3.7934375 4.9690625 2.5625 4.9375 C0.06645115 4.70366379 0.06645115 4.70366379 -1 6 C-2.99958364 6.04080783 -5.00045254 6.04254356 -7 6 C-7 4.68 -7 3.36 -7 2 C-5.02 2 -3.04 2 -1 2 C-0.67 1.34 -0.34 0.68 0 0 Z " fill="#8CC466" transform="translate(215,71)"/>
<path d="M0 0 C4.875 1.875 4.875 1.875 6 3 C6.04080783 4.99958364 6.04254356 7.00045254 6 9 C5.01 9.495 5.01 9.495 4 10 C2 8.9375 2 8.9375 0 7 C-0.25 3.3125 -0.25 3.3125 0 0 Z " fill="#93CC65" transform="translate(149,159)"/>
<path d="M0 0 C1.32 0 2.64 0 4 0 C4.33 0.99 4.66 1.98 5 3 C5.99 3.33 6.98 3.66 8 4 C8 5.32 8 6.64 8 8 C7.01 8 6.02 8 5 8 C5 10.31 5 12.62 5 15 C3.68 15.33 2.36 15.66 1 16 C1.144375 15.319375 1.28875 14.63875 1.4375 13.9375 C1.623125 12.968125 1.80875 11.99875 2 11 C2.2475 9.824375 2.495 8.64875 2.75 7.4375 C3.32601209 4.02440199 3.32601209 4.02440199 1.5625 1.5625 C1.046875 1.046875 0.53125 0.53125 0 0 Z " fill="#407147" transform="translate(139,109)"/>
<path d="M0 0 C-0.75 4.75 -0.75 4.75 -3 7 C-5.625 7.125 -5.625 7.125 -8 7 C-8.1875 4.625 -8.1875 4.625 -8 2 C-4.77208445 -0.1519437 -3.71599191 -0.20086443 0 0 Z " fill="#96CF65" transform="translate(235,94)"/>
<path d="M0 0 C3.69230769 0.69230769 3.69230769 0.69230769 5 2 C4.71269945 4.33944736 4.38063221 6.6739143 4 9 C0.125 8.125 0.125 8.125 -1 7 C-1.125 4 -1.125 4 -1 1 C-0.67 0.67 -0.34 0.34 0 0 Z " fill="#90C965" transform="translate(113,88)"/>
<path d="M0 0 C1.32 0 2.64 0 4 0 C4.125 2.875 4.125 2.875 4 6 C3.34 6.66 2.68 7.32 2 8 C-0.625 7.625 -0.625 7.625 -3 7 C-2.25 2.25 -2.25 2.25 0 0 Z " fill="#94CD64" transform="translate(159,123)"/>
<path d="M0 0 C3.68754757 0.49831724 5.60490662 1.10067643 8 4 C7.67 4.99 7.34 5.98 7 7 C4.15673536 7.23053497 2.53854651 7.35903101 0.125 5.75 C-1 4 -1 4 -0.6875 1.8125 C-0.460625 1.214375 -0.23375 0.61625 0 0 Z " fill="#98D165" transform="translate(226,118)"/>
<path d="M0 0 C3.25058998 0.59036973 5.00807665 1.5962824 7.4375 3.8125 C8.3346875 4.61494141 8.3346875 4.61494141 9.25 5.43359375 C9.8275 5.95050781 10.405 6.46742188 11 7 C12.65975389 8.34192868 14.32346641 9.67909475 16 11 C10.66370285 10.73755916 10.66370285 10.73755916 8 10 C6.3125 7.625 6.3125 7.625 5 5 C3.35394174 3.96642853 1.69036558 2.95939668 0 2 C0 1.34 0 0.68 0 0 Z " fill="#316250" transform="translate(117,155)"/>
<path d="M0 0 C0.99 0.66 1.98 1.32 3 2 C3.1875 5.625 3.1875 5.625 3 9 C1.0625 9.5625 1.0625 9.5625 -1 10 C-2 9 -2 9 -2.1875 6.125 C-2 3 -2 3 0 0 Z " fill="#97D067" transform="translate(149,146)"/>
<path d="M0 0 C2.31 0 4.62 0 7 0 C5.125 4.875 5.125 4.875 4 6 C2.33382885 6.04063832 0.66611905 6.042721 -1 6 C-1 2 -1 2 0 0 Z " fill="#95CD64" transform="translate(155,140)"/>
<path d="M0 0 C1.32 1.32 2.64 2.64 4 4 C3.1875 6.4375 3.1875 6.4375 2 9 C1.01 9.33 0.02 9.66 -1 10 C-1.66 9.67 -2.32 9.34 -3 9 C-3 10.65 -3 12.3 -3 14 C-3.33 14 -3.66 14 -4 14 C-4 11.36 -4 8.72 -4 6 C-3.01 5.67 -2.02 5.34 -1 5 C-0.67 3.35 -0.34 1.7 0 0 Z " fill="#568A51" transform="translate(152,150)"/>
<path d="M0 0 C-0.3125 2.375 -0.3125 2.375 -1 5 C-4 7 -4 7 -7 7 C-7.33 5.35 -7.66 3.7 -8 2 C-4.77208445 -0.1519437 -3.71599191 -0.20086443 0 0 Z " fill="#98D266" transform="translate(172,125)"/>
<path d="M0 0 C3.625 0.375 3.625 0.375 7 1 C6.67 2.32 6.34 3.64 6 5 C3.69 5.33 1.38 5.66 -1 6 C-1.625 4.125 -1.625 4.125 -2 2 C-1.34 1.34 -0.68 0.68 0 0 Z " fill="#91CA65" transform="translate(191,81)"/>
<path d="M0 0 C1.98 0.495 1.98 0.495 4 1 C4 3.31 4 5.62 4 8 C2.0625 8.5625 2.0625 8.5625 0 9 C-1 8 -1 8 -1.125 5.0625 C-1 2 -1 2 0 0 Z " fill="#92CB65" transform="translate(113,74)"/>
<path d="M0 0 C0.33 0 0.66 0 1 0 C1.13020833 1.953125 1.26041667 3.90625 1.390625 5.859375 C1.99583736 8.64448493 1.99583736 8.64448493 6 12 C0.06 11.01 0.06 11.01 -6 10 C-5.34 9.67 -4.68 9.34 -4 9 C-4 8.01 -4 7.02 -4 6 C-3.01 6 -2.02 6 -1 6 C-0.67 4.02 -0.34 2.04 0 0 Z " fill="#38684C" transform="translate(155,162)"/>
<path d="M0 0 C2.25 -0.375 2.25 -0.375 5 0 C7.3125 3 7.3125 3 9 6 C2.47692308 6.36923077 2.47692308 6.36923077 0.0625 4.5 C-0.4634375 3.7575 -0.4634375 3.7575 -1 3 C-0.67 2.01 -0.34 1.02 0 0 Z " fill="#96CF60" transform="translate(219,110)"/>
<path d="M0 0 C0.125 2.875 0.125 2.875 0 6 C-0.66 6.66 -1.32 7.32 -2 8 C-3.32 8 -4.64 8 -6 8 C-6.36458333 3.50347222 -6.36458333 3.50347222 -4.6875 1.1875 C-3 0 -3 0 0 0 Z " fill="#93CE67" transform="translate(147,75)"/>
<path d="M0 0 C-0.875 3.875 -0.875 3.875 -2 5 C-3.66617115 5.04063832 -5.33388095 5.042721 -7 5 C-7.33 6.32 -7.66 7.64 -8 9 C-8.33 9 -8.66 9 -9 9 C-9.3125 6.75 -9.3125 6.75 -9 4 C-5.79364489 0.70457948 -4.69279787 0 0 0 Z " fill="#99D263" transform="translate(163,146)"/>
<path d="M0 0 C0.99 0 1.98 0 3 0 C3 2.31 3 4.62 3 7 C3.66 7.33 4.32 7.66 5 8 C4.67 8.66 4.34 9.32 4 10 C1.71484375 10.4140625 1.71484375 10.4140625 -1.0625 10.625 C-1.98160156 10.69976562 -2.90070313 10.77453125 -3.84765625 10.8515625 C-4.91306641 10.92503906 -4.91306641 10.92503906 -6 11 C-6 8.36 -6 5.72 -6 3 C-5.01 3.495 -5.01 3.495 -4 4 C-3.375 6.5625 -3.375 6.5625 -3 9 C-0.95163118 8.43637698 -0.95163118 8.43637698 1 7 C1.81584568 3.94091587 1.81584568 3.94091587 2 1 C1.34 0.67 0.68 0.34 0 0 Z " fill="#71A659" transform="translate(161,122)"/>
<path d="M0 0 C0.99 0.33 1.98 0.66 3 1 C3.33 3.31 3.66 5.62 4 8 C2.0625 8.5625 2.0625 8.5625 0 9 C-1 8 -1 8 -1.125 4.5 C-1 1 -1 1 0 0 Z " fill="#96CF67" transform="translate(139,110)"/>
<path d="M0 0 C0.125 2.875 0.125 2.875 0 6 C-0.66 6.66 -1.32 7.32 -2 8 C-3.32 8 -4.64 8 -6 8 C-6.25 5.6875 -6.25 5.6875 -6 3 C-3.95575462 1.02389614 -2.8823175 0 0 0 Z " fill="#9FD96C" transform="translate(126,86)"/>
<path d="M0 0 C1.4540625 0.0309375 1.4540625 0.0309375 2.9375 0.0625 C2.3125 2.5 2.3125 2.5 0.9375 5.0625 C-2.1875 5.875 -2.1875 5.875 -5.0625 6.0625 C-3.98897059 0.08140756 -3.98897059 0.08140756 0 0 Z " fill="#96D066" transform="translate(157.0625,117.9375)"/>
<path d="M0 0 C1.670625 0.061875 1.670625 0.061875 3.375 0.125 C2.5 4 2.5 4 1.375 5.125 C-0.62458364 5.16580783 -2.62545254 5.16754356 -4.625 5.125 C-4.955 4.135 -5.285 3.145 -5.625 2.125 C-3.625 0.125 -3.625 0.125 0 0 Z " fill="#90C965" transform="translate(125.625,57.875)"/>
<path d="M0 0 C0.99 0 1.98 0 3 0 C3 0.99 3 1.98 3 3 C2.01 3.495 2.01 3.495 1 4 C0.34227572 7.02934491 0.34227572 7.02934491 0 10 C0.99 10 1.98 10 3 10 C3 10.66 3 11.32 3 12 C3.99 12.33 4.98 12.66 6 13 C5.01 13 4.02 13 3 13 C2.67 13.66 2.34 14.32 2 15 C2 14.34 2 13.68 2 13 C1.34 12.67 0.68 12.34 0 12 C-0.5 9.5 -0.5 9.5 -1 7 C-1.66 6.67 -2.32 6.34 -3 6 C-2.34 6 -1.68 6 -1 6 C-1 5.34 -1 4.68 -1 4 C-2.65 4 -4.3 4 -6 4 C-6 3.67 -6 3.34 -6 3 C-4.02 3 -2.04 3 0 3 C0 2.01 0 1.02 0 0 Z " fill="#4A7C53" transform="translate(196,69)"/>
<path d="M0 0 C1.46291304 0.5929915 2.92021513 1.19983823 4.375 1.8125 C5.18710938 2.14894531 5.99921875 2.48539063 6.8359375 2.83203125 C9 4 9 4 11 7 C8.03 6.67 5.06 6.34 2 6 C1.34 4.02 0.68 2.04 0 0 Z " fill="#305E50" transform="translate(135,167)"/>
<path d="M0 0 C1.32 0.66 2.64 1.32 4 2 C4 3.65 4 5.3 4 7 C2.35 7.33 0.7 7.66 -1 8 C-1.04241723 5.66705225 -1.04092937 3.33297433 -1 1 C-0.67 0.67 -0.34 0.34 0 0 Z " fill="#95CD65" transform="translate(118,65)"/>
<path d="M0 0 C0.33 0.99 0.66 1.98 1 3 C2.98 3 4.96 3 7 3 C4.87033995 5.12966005 3.95931796 5.47624662 1.125 6.1875 C0.44695312 6.36667969 -0.23109375 6.54585937 -0.9296875 6.73046875 C-3 7 -3 7 -7 6 C-4.69 4.02 -2.38 2.04 0 0 Z " fill="#39694B" transform="translate(185,167)"/>
<path d="M0 0 C0.66 0.33 1.32 0.66 2 1 C1.01 4.3 0.02 7.6 -1 11 C-2.46132217 8.07735566 -3.34099246 6.07536854 -4 3 C-2.68 2.01 -1.36 1.02 0 0 Z " fill="#2E574B" transform="translate(242,124)"/>
<path d="M0 0 C0.6875 1.8125 0.6875 1.8125 1 4 C0 5 -1 6 -2 7 C-2.7269226 10.10839021 -2.7269226 10.10839021 -3 13 C-5.12046792 9.46588679 -5.53199289 6.05606165 -6 2 C-4.7934375 1.7834375 -4.7934375 1.7834375 -3.5625 1.5625 C-1.07896294 1.25864751 -1.07896294 1.25864751 0 0 Z " fill="#497B4D" transform="translate(138,79)"/>
<path d="M0 0 C1.32 0 2.64 0 4 0 C4.25 2.3125 4.25 2.3125 4 5 C2.25 6.875 2.25 6.875 0 8 C-2.25 7.6875 -2.25 7.6875 -4 7 C-2.35 5.68 -0.7 4.36 1 3 C0.34 2.34 -0.32 1.68 -1 1 C-0.67 0.67 -0.34 0.34 0 0 Z " fill="#A2DD69" transform="translate(131,63)"/>
<path d="M0 0 C-0.66 1.32 -1.32 2.64 -2 4 C-3.65 4 -5.3 4 -7 4 C-7.33 2.68 -7.66 1.36 -8 0 C-5.13822943 -1.43088528 -3.06624227 -0.59991697 0 0 Z " fill="#84BB62" transform="translate(221,78)"/>
<path d="M0 0 C0.7734375 0.2165625 0.7734375 0.2165625 1.5625 0.4375 C4.68509571 1.15809901 7.82550692 1.57266439 11 2 C9.35 3.98 7.7 5.96 6 8 C5.38125 7.195625 4.7625 6.39125 4.125 5.5625 C2.25835959 2.96125481 2.25835959 2.96125481 0 2 C0 1.34 0 0.68 0 0 Z " fill="#3B6E46" transform="translate(148,144)"/>
<path d="M0 0 C0.99 0.33 1.98 0.66 3 1 C2.96744792 3.01822917 2.93489583 5.03645833 2.90234375 7.0546875 C2.87350758 9.08185404 2.87350758 9.08185404 4 11 C2.68 10.67 1.36 10.34 0 10 C-0.19412181 8.52168779 -0.38012131 7.04230684 -0.5625 5.5625 C-0.66691406 4.73878906 -0.77132812 3.91507812 -0.87890625 3.06640625 C-0.91886719 2.38449219 -0.95882812 1.70257813 -1 1 C-0.67 0.67 -0.34 0.34 0 0 Z " fill="#9BD666" transform="translate(208,91)"/>
<path d="M0 0 C5.97942407 2.11038497 10.69355877 5.36229406 15 10 C11.18866131 10 9.98145317 8.7905482 6.9375 6.5625 C3.58939625 4.08237535 3.58939625 4.08237535 0 2 C0 1.34 0 0.68 0 0 Z " fill="#5A8F5F" transform="translate(221,82)"/>
<path d="M0 0 C1.32 0 2.64 0 4 0 C3.67 1.65 3.34 3.3 3 5 C1.02 5.33 -0.96 5.66 -3 6 C-1.125 1.125 -1.125 1.125 0 0 Z " fill="#90C965" transform="translate(125,102)"/>
<path d="M0 0 C1.32 0.66 2.64 1.32 4 2 C3.67 3.65 3.34 5.3 3 7 C1.68 7 0.36 7 -1 7 C-1.04254356 5.00045254 -1.04080783 2.99958364 -1 1 C-0.67 0.67 -0.34 0.34 0 0 Z " fill="#8EC765" transform="translate(118,98)"/>
<path d="M0 0 C0.33 0 0.66 0 1 0 C1 1.65 1 3.3 1 5 C2.32 5.33 3.64 5.66 5 6 C4.34 6 3.68 6 3 6 C3 9.3 3 12.6 3 16 C2.01 15.34 1.02 14.68 0 14 C-0.04166002 11.6670386 -0.04166002 9.3329614 0 7 C-0.66 6.34 -1.32 5.68 -2 5 C-1.34 5 -0.68 5 0 5 C0 3.35 0 1.7 0 0 Z " fill="#5A8E53" transform="translate(116,68)"/>
<path d="M0 0 C2.78637633 4.1795645 1.79562512 6.14668677 1 11 C1.99 11.33 2.98 11.66 4 12 C2.35 12.33 0.7 12.66 -1 13 C-1 12.34 -1 11.68 -1 11 C-1.66 10.67 -2.32 10.34 -3 10 C-2.690625 9.46375 -2.38125 8.9275 -2.0625 8.375 C-0.82172561 5.6015043 -0.4090325 2.99957163 0 0 Z " fill="#396A4C" transform="translate(140,72)"/>
<path d="M0 0 C-0.33 0.66 -0.66 1.32 -1 2 C-1.87011719 1.82210937 -1.87011719 1.82210937 -2.7578125 1.640625 C-8.44383938 0.69138585 -8.44383938 0.69138585 -13.5625 2.9375 C-14.366875 3.618125 -15.17125 4.29875 -16 5 C-16 4.01 -16 3.02 -16 2 C-11.18314149 -1.94106605 -5.76711366 -1.84547637 0 0 Z " fill="#294C40" transform="translate(279,208)"/>
<path d="M0 0 C2.5 1.6875 2.5 1.6875 5 4 C5.3125 6.75 5.3125 6.75 5 9 C1.125 7.125 1.125 7.125 0 6 C-0.04080783 4.00041636 -0.04254356 1.99954746 0 0 Z " fill="#A3DD67" transform="translate(212,134)"/>
<path d="M0 0 C2.97 0.495 2.97 0.495 6 1 C6.68707555 3.49064888 7 5.37886292 7 8 C5.1875 7.8125 5.1875 7.8125 3 7 C0 2.82142857 0 2.82142857 0 0 Z " fill="#A0DA67" transform="translate(209,116)"/>
<path d="M0 0 C0.66 0.66 1.32 1.32 2 2 C2.99 2.33 3.98 2.66 5 3 C4.01 3.33 3.02 3.66 2 4 C1.26676204 6.01508358 1.26676204 6.01508358 1 8 C0.01 8 -0.98 8 -2 8 C-2.125 5.125 -2.125 5.125 -2 2 C-1.34 1.34 -0.68 0.68 0 0 Z " fill="#90C85F" transform="translate(121,76)"/>
<path d="M0 0 C0.66 0 1.32 0 2 0 C1 3 1 3 -0.765625 4.1796875 C-3.25718223 5.09442005 -5.10616836 5.20275975 -7.75 5.125 C-8.54921875 5.10695313 -9.3484375 5.08890625 -10.171875 5.0703125 C-10.77515625 5.04710937 -11.3784375 5.02390625 -12 5 C-12 4.34 -12 3.68 -12 3 C-10.95199219 2.92652344 -10.95199219 2.92652344 -9.8828125 2.8515625 C-8.97273438 2.77679688 -8.06265625 2.70203125 -7.125 2.625 C-6.22007813 2.55539063 -5.31515625 2.48578125 -4.3828125 2.4140625 C-1.82058097 2.20431868 -1.82058097 2.20431868 0 0 Z " fill="#3D6052" transform="translate(75,252)"/>
<path d="M0 0 C1.65 0 3.3 0 5 0 C4.42655063 2.86724686 4.1385485 3.8614515 2 6 C0.68 5.34 -0.64 4.68 -2 4 C-1.34 2.68 -0.68 1.36 0 0 Z " fill="#8EC764" transform="translate(150,125)"/>
<path d="M0 0 C1.9375 0.75 1.9375 0.75 4 2 C4.75 4.125 4.75 4.125 5 6 C4.01 6.66 3.02 7.32 2 8 C0 6 0 6 -0.125 2.875 C-0.08375 1.92625 -0.0425 0.9775 0 0 Z " fill="#92CC67" transform="translate(144,117)"/>
<path d="M0 0 C0.33 0 0.66 0 1 0 C1 1.65 1 3.3 1 5 C1.66 5.33 2.32 5.66 3 6 C1 9 1 9 -0.9453125 9.51171875 C-1.66460937 9.56972656 -2.38390625 9.62773438 -3.125 9.6875 C-5.043125 9.8421875 -5.043125 9.8421875 -7 10 C-7 8.02 -7 6.04 -7 4 C-6.67 5.32 -6.34 6.64 -6 8 C-3.46255685 7.45291273 -3.46255685 7.45291273 -1 6 C-0.10169161 2.94727535 -0.10169161 2.94727535 0 0 Z " fill="#4E8051" transform="translate(126,86)"/>
<path d="M0 0 C0.33 0 0.66 0 1 0 C1 1.98 1 3.96 1 6 C-2.37097383 7.49821059 -4.20442119 8 -8 8 C-7.67 6.68 -7.34 5.36 -7 4 C-6.67 4.33 -6.34 4.66 -6 5 C-4.32457024 4.71395102 -2.65614657 4.38218767 -1 4 C-0.67 2.68 -0.34 1.36 0 0 Z " fill="#3B6159" transform="translate(282,217)"/>
<path d="M0 0 C1.1725131 0.95117134 2.33787015 1.91117009 3.5 2.875 C4.47453125 3.67550781 4.47453125 3.67550781 5.46875 4.4921875 C5.9740625 4.98976563 6.479375 5.48734375 7 6 C7 6.66 7 7.32 7 8 C4.36 7.67 1.72 7.34 -1 7 C-0.67 4.69 -0.34 2.38 0 0 Z " fill="#386745" transform="translate(206,98)"/>
<path d="M0 0 C1.299375 0.4640625 1.299375 0.4640625 2.625 0.9375 C5.76150738 1.92491899 8.75067413 2.53581059 12 3 C12 3.66 12 4.32 12 5 C7.04230204 5.29162929 3.97193147 5.12940055 0 2 C0 1.34 0 0.68 0 0 Z " fill="#386158" transform="translate(300,252)"/>
<path d="M0 0 C-0.66 1.65 -1.32 3.3 -2 5 C-3.65 4.67 -5.3 4.34 -7 4 C-6.67 3.01 -6.34 2.02 -6 1 C-4 0 -4 0 0 0 Z " fill="#8DC666" transform="translate(163,69)"/>
<path d="M0 0 C1.45880109 0.14107747 2.91703551 0.28802415 4.375 0.4375 C5.59316406 0.55931641 5.59316406 0.55931641 6.8359375 0.68359375 C9 1 9 1 11 2 C10.67 4.64 10.34 7.28 10 10 C9.67 10 9.34 10 9 10 C9 7.69 9 5.38 9 3 C7.02 3.66 5.04 4.32 3 5 C2.67 4.01 2.34 3.02 2 2 C1.34 2 0.68 2 0 2 C0 1.34 0 0.68 0 0 Z " fill="#41744B" transform="translate(190,115)"/>
<path d="M0 0 C1.65 0.33 3.3 0.66 5 1 C4.34 3.64 3.68 6.28 3 9 C2.67 7.68 2.34 6.36 2 5 C1.01 5 0.02 5 -1 5 C-0.67 3.35 -0.34 1.7 0 0 Z " fill="#356549" transform="translate(146,69)"/>
<path d="M0 0 C0 1.65 0 3.3 0 5 C-1.98 5.99 -1.98 5.99 -4 7 C-4.6875 5.1875 -4.6875 5.1875 -5 3 C-3.38441968 0.84589291 -2.74502455 0 0 0 Z " fill="#8EC868" transform="translate(158,63)"/>
<path d="M0 0 C0.66 0.33 1.32 0.66 2 1 C1.05066101 4.35433109 0.10251165 7.69246505 -1 11 C-4 6.25 -4 6.25 -4 4 C-2.70766393 2.62689293 -1.37562854 1.28965176 0 0 Z " fill="#3E665B" transform="translate(33,233)"/>
<path d="M0 0 C1.98 0.495 1.98 0.495 4 1 C3.67 3.31 3.34 5.62 3 8 C1.68 7.67 0.36 7.34 -1 7 C-0.67 4.69 -0.34 2.38 0 0 Z " fill="#A3DF64" transform="translate(219,136)"/>
<path d="M0 0 C1.65 0 3.3 0 5 0 C4.195625 0.886875 3.39125 1.77375 2.5625 2.6875 C0.2960841 5.38287032 -0.68417366 7.42063478 -1 11 C-1.33 11 -1.66 11 -2 11 C-2.28571429 3.57142857 -2.28571429 3.57142857 0 0 Z " fill="#427446" transform="translate(147,130)"/>
<path d="M0 0 C0.66 0.33 1.32 0.66 2 1 C2 2.98 2 4.96 2 7 C0.68 7 -0.64 7 -2 7 C-2.125 4.625 -2.125 4.625 -2 2 C-1.34 1.34 -0.68 0.68 0 0 Z " fill="#8BC468" transform="translate(137,120)"/>
<path d="M0 0 C0 1.32 0 2.64 0 4 C0.66 4.33 1.32 4.66 2 5 C-1.38023517 5 -3.83468937 4.12544378 -7 3 C-5.40442685 -0.19114631 -3.35905282 0 0 0 Z " fill="#518549" transform="translate(203,107)"/>
<path d="M0 0 C0.33 0 0.66 0 1 0 C1.33 1.65 1.66 3.3 2 5 C2.66 4.34 3.32 3.68 4 3 C4.33 3.99 4.66 4.98 5 6 C5.66 6.66 6.32 7.32 7 8 C4.6875 8.625 4.6875 8.625 2 9 C1.01 8.34 0.02 7.68 -1 7 C-0.67 4.69 -0.34 2.38 0 0 Z " fill="#609553" transform="translate(223,94)"/>
<path d="M0 0 C-0.66 2.97 -1.32 5.94 -2 9 C-0.68 8.67 0.64 8.34 2 8 C1.01 9.32 0.02 10.64 -1 12 C-3.39763185 9.60236815 -3.34280586 8.66726502 -3.625 5.375 C-3.69976562 4.55773437 -3.77453125 3.74046875 -3.8515625 2.8984375 C-3.90054688 2.27195312 -3.94953125 1.64546875 -4 1 C-2 0 -2 0 0 0 Z " fill="#386847" transform="translate(121,87)"/>
<path d="M0 0 C1.32 0 2.64 0 4 0 C3.67 1.32 3.34 2.64 3 4 C1.35 4.33 -0.3 4.66 -2 5 C-1.125 1.125 -1.125 1.125 0 0 Z " fill="#88C168" transform="translate(141,57)"/>
<path d="M0 0 C1.32 0 2.64 0 4 0 C3.34 1.65 2.68 3.3 2 5 C0.35 5 -1.3 5 -3 5 C-1.75 2.5 -1.75 2.5 0 0 Z " fill="#88C067" transform="translate(149,55)"/>
<path d="M0 0 C3 1 3 1 4 3 C4.039992 4.99960012 4.04346799 7.00047242 4 9 C3.67 7.68 3.34 6.36 3 5 C1.68 4.67 0.36 4.34 -1 4 C-0.67 2.68 -0.34 1.36 0 0 Z " fill="#84BD65" transform="translate(144,108)"/>
<path d="M0 0 C-1.5830577 4.2742558 -4.50568404 6.26531794 -8 9 C-7.53918323 4.85264908 -4.48412936 0 0 0 Z " fill="#5C9162" transform="translate(110,87)"/>
<path d="M0 0 C2.97 0.33 5.94 0.66 9 1 C8.01 1.33 7.02 1.66 6 2 C5.26676204 4.01508358 5.26676204 4.01508358 5 6 C5 5.34 5 4.68 5 4 C4.360625 3.71125 3.72125 3.4225 3.0625 3.125 C1 2 1 2 0 0 Z " fill="#37674C" transform="translate(180,36)"/>
<path d="M0 0 C0.33 0.99 0.66 1.98 1 3 C-0.90401138 4.90401138 -2.33425686 5.93520439 -5.046875 6.19921875 C-7.03233273 6.1886578 -9.0169914 6.09915043 -11 6 C-11 5.67 -11 5.34 -11 5 C-9.02 5 -7.04 5 -5 5 C-5 4.34 -5 3.68 -5 3 C-2.5 1.375 -2.5 1.375 0 0 Z " fill="#3F6057" transform="translate(39,251)"/>
<path d="M0 0 C6.15234375 0.5859375 6.15234375 0.5859375 8 1 C8.33 1.66 8.66 2.32 9 3 C2.25 4.125 2.25 4.125 0 3 C0 2.01 0 1.02 0 0 Z " fill="#305048" transform="translate(223,253)"/>
<path d="M0 0 C0.66 0 1.32 0 2 0 C1.75 2.375 1.75 2.375 1 5 C-1.0625 6.3125 -1.0625 6.3125 -3 7 C-2.25 2.25 -2.25 2.25 0 0 Z " fill="#A5DF67" transform="translate(152,136)"/>
<path d="M0 0 C2.5 1.25 2.5 1.25 5 3 C5 4.32 5 5.64 5 7 C3.68 6.67 2.36 6.34 1 6 C1 4.68 1 3.36 1 2 C0.34 1.67 -0.32 1.34 -1 1 C-0.67 0.67 -0.34 0.34 0 0 Z " fill="#85BD65" transform="translate(221,133)"/>
<path d="M0 0 C0.99 0.33 1.98 0.66 3 1 C3 2.65 3 4.3 3 6 C2.01 6.495 2.01 6.495 1 7 C0.34 6.67 -0.32 6.34 -1 6 C-0.67 4.02 -0.34 2.04 0 0 Z " fill="#93CB6A" transform="translate(150,71)"/>
<path d="M0 0 C1.65 0 3.3 0 5 0 C4.67 1.32 4.34 2.64 4 4 C2.35 4 0.7 4 -1 4 C-0.67 2.68 -0.34 1.36 0 0 Z " fill="#99D168" transform="translate(158,134)"/>
<path d="M0 0 C0.66 0 1.32 0 2 0 C2.125 2.875 2.125 2.875 2 6 C1.34 6.66 0.68 7.32 0 8 C-0.99 8 -1.98 8 -3 8 C-2.5359375 7.13375 -2.5359375 7.13375 -2.0625 6.25 C-1.07416636 4.15705816 -0.4831387 2.25464725 0 0 Z " fill="#A3DE65" transform="translate(161,123)"/>
<path d="M0 0 C0.6875 1.8125 0.6875 1.8125 1 4 C-0.84159673 6.48615558 -2.00470711 7.00156904 -5 8 C-7.1875 7.0625 -7.1875 7.0625 -9 6 C-8.15115234 5.72736328 -8.15115234 5.72736328 -7.28515625 5.44921875 C-6.55167969 5.19785156 -5.81820312 4.94648437 -5.0625 4.6875 C-3.96615234 4.32205078 -3.96615234 4.32205078 -2.84765625 3.94921875 C-0.64067976 3.08759559 -0.64067976 3.08759559 0 0 Z " fill="#457646" transform="translate(195,104)"/>
<path d="M0 0 C0.66 0.99 1.32 1.98 2 3 C1.525625 3.391875 1.05125 3.78375 0.5625 4.1875 C-1.35179633 6.40808374 -1.61266988 8.13375709 -2 11 C-2.33 11 -2.66 11 -3 11 C-3 7.7 -3 4.4 -3 1 C-2.01 1.495 -2.01 1.495 -1 2 C-0.67 1.34 -0.34 0.68 0 0 Z " fill="#3B6D48" transform="translate(188,98)"/>
<path d="M0 0 C2.64 0.33 5.28 0.66 8 1 C7.67 1.99 7.34 2.98 7 4 C7 3.34 7 2.68 7 2 C3.34683329 3.24976756 2.21934164 3.67098753 0 7 C-1.04449911 3.86650268 -0.93423645 3.01031744 0 0 Z " fill="#42744E" transform="translate(122,100)"/>
<path d="M0 0 C0.99 0.99 1.98 1.98 3 3 C2.67 3.66 2.34 4.32 2 5 C1.01 5 0.02 5 -1 5 C-1.33 5.99 -1.66 6.98 -2 8 C-3.32 7.34 -4.64 6.68 -6 6 C-4 4 -2 2 0 0 Z " fill="#3E7049" transform="translate(236,95)"/>
<path d="M0 0 C0.33 0.66 0.66 1.32 1 2 C1.66 2 2.32 2 3 2 C3.33 2.99 3.66 3.98 4 5 C2.68 5.99 1.36 6.98 0 8 C0 7.01 0 6.02 0 5 C-0.66 4.67 -1.32 4.34 -2 4 C-1.34 2.68 -0.68 1.36 0 0 Z " fill="#487C4B" transform="translate(196,94)"/>
<path d="M0 0 C1.32 0 2.64 0 4 0 C3.3125 1.9375 3.3125 1.9375 2 4 C-0.625 4.75 -0.625 4.75 -3 5 C-1.75 2.5 -1.75 2.5 0 0 Z " fill="#A1DB68" transform="translate(202,92)"/>
<path d="M0 0 C1.98 0 3.96 0 6 0 C5.34 1.32 4.68 2.64 4 4 C2.68 4 1.36 4 0 4 C0 2.68 0 1.36 0 0 Z " fill="#8FC765" transform="translate(201,71)"/>
<path d="M0 0 C3.39914975 1.13304992 4.05254451 2.12518475 6 5 C5.67 5.66 5.34 6.32 5 7 C4.01 6.01 3.02 5.02 2 4 C1.34 5.32 0.68 6.64 0 8 C0 5.36 0 2.72 0 0 Z " fill="#679C54" transform="translate(211,131)"/>
<path d="M0 0 C0.99 0.33 1.98 0.66 3 1 C2.67 2.32 2.34 3.64 2 5 C-2.455 5.495 -2.455 5.495 -7 6 C-4.38058783 4.25372522 -2.96175123 3.61277612 0 3 C0 2.01 0 1.02 0 0 Z " fill="#37684E" transform="translate(196,128)"/>
<path d="M0 0 C2 1.25 2 1.25 4 3 C4 4.32 4 5.64 4 7 C3.01 7 2.02 7 1 7 C0.67 4.69 0.34 2.38 0 0 Z " fill="#A2DB68" transform="translate(221,125)"/>
<path d="M0 0 C1.32 1.32 2.64 2.64 4 4 C3.01 4.495 3.01 4.495 2 5 C2.33 7.31 2.66 9.62 3 12 C0.97649676 8.96474514 0.67875982 7.80573798 0.375 4.3125 C0.30023438 3.50425781 0.22546875 2.69601563 0.1484375 1.86328125 C0.09945312 1.24839844 0.05046875 0.63351563 0 0 Z " fill="#39694D" transform="translate(101,114)"/>
<path d="M0 0 C5.75 -0.125 5.75 -0.125 8 1 C8 1.66 8 2.32 8 3 C2.25 3.125 2.25 3.125 0 2 C0 1.34 0 0.68 0 0 Z " fill="#A3DE6B" transform="translate(191,114)"/>
<path d="M0 0 C0.66 0 1.32 0 2 0 C2 1.32 2 2.64 2 4 C0.02 4.66 -1.96 5.32 -4 6 C-2.84826645 3.53199953 -1.95216435 1.95216435 0 0 Z " fill="#A1DA68" transform="translate(192,104)"/>
<path d="M0 0 C0.33 0.99 0.66 1.98 1 3 C-1.375 4.5625 -1.375 4.5625 -4 6 C-4.66 5.67 -5.32 5.34 -6 5 C-3.375 1.125 -3.375 1.125 0 0 Z " fill="#A1DC6A" transform="translate(204,102)"/>
<path d="M0 0 C1.485 0.99 1.485 0.99 3 2 C3.66 1.34 4.32 0.68 5 0 C5 2.64 5 5.28 5 8 C2.5 6.25 2.5 6.25 0 4 C0 2.68 0 1.36 0 0 Z " fill="#6A9E60" transform="translate(235,92)"/>
<path d="M0 0 C0.66 0.33 1.32 0.66 2 1 C2.6328125 3.06640625 2.6328125 3.06640625 3.125 5.5625 C3.29257813 6.38878906 3.46015625 7.21507813 3.6328125 8.06640625 C3.75398437 8.70449219 3.87515625 9.34257813 4 10 C3.34 10 2.68 10 2 10 C1.01 7.03 0.02 4.06 -1 1 C-0.67 0.67 -0.34 0.34 0 0 Z " fill="#3C5C55" transform="translate(240,75)"/>
<path d="M0 0 C1.32 0 2.64 0 4 0 C3.3125 1.9375 3.3125 1.9375 2 4 C-0.625 4.75 -0.625 4.75 -3 5 C-1.75 2.5 -1.75 2.5 0 0 Z " fill="#A4DE69" transform="translate(158,152)"/>
<path d="M0 0 C0.99 0.66 1.98 1.32 3 2 C3 2.99 3 3.98 3 5 C1.35 4.67 -0.3 4.34 -2 4 C-2 3.01 -2 2.02 -2 1 C-1.34 0.67 -0.68 0.34 0 0 Z " fill="#8EC767" transform="translate(215,144)"/>
<path d="M0 0 C0.99 0 1.98 0 3 0 C2.67 1.32 2.34 2.64 2 4 C0.35 4.33 -1.3 4.66 -3 5 C-1.6875 2.5 -1.6875 2.5 0 0 Z " fill="#A6E069" transform="translate(168,137)"/>
<path d="M0 0 C1.65 0.33 3.3 0.66 5 1 C3.35 2.65 1.7 4.3 0 6 C-1.125 2.25 -1.125 2.25 0 0 Z " fill="#92CB63" transform="translate(164,135)"/>
<path d="M0 0 C0.33 0 0.66 0 1 0 C1.66 3.3 2.32 6.6 3 10 C1.68 10 0.36 10 -1 10 C-0.67 6.7 -0.34 3.4 0 0 Z " fill="#36664F" transform="translate(201,122)"/>
<path d="M0 0 C2.625 0.375 2.625 0.375 5 1 C3.68 2.32 2.36 3.64 1 5 C1 4.34 1 3.68 1 3 C0.01 2.67 -0.98 2.34 -2 2 C-1.34 1.34 -0.68 0.68 0 0 Z " fill="#487A4E" transform="translate(216,120)"/>
<path d="M0 0 C0.33 0.66 0.66 1.32 1 2 C1.99 2 2.98 2 4 2 C4.33 3.98 4.66 5.96 5 8 C4.01 8 3.02 8 2 8 C1.34 7.34 0.68 6.68 0 6 C0.66 6 1.32 6 2 6 C2 5.01 2 4.02 2 3 C1.01 2.67 0.02 2.34 -1 2 C-0.67 1.34 -0.34 0.68 0 0 Z " fill="#639757" transform="translate(215,107)"/>
<path d="M0 0 C0.66 0.33 1.32 0.66 2 1 C1.67 2.65 1.34 4.3 1 6 C-0.32 5.34 -1.64 4.68 -3 4 C-2 2 -2 2 0 0 Z " fill="#8BC269" transform="translate(154,111)"/>
<path d="M0 0 C2.31 0.33 4.62 0.66 7 1 C7 2.98 7 4.96 7 7 C6.67 7 6.34 7 6 7 C6 5.35 6 3.7 6 2 C4.35 2.66 2.7 3.32 1 4 C0.67 2.68 0.34 1.36 0 0 Z " fill="#548754" transform="translate(141,73)"/>
<path d="M0 0 C1.32 0 2.64 0 4 0 C3.67 1.98 3.34 3.96 3 6 C2.34 6 1.68 6 1 6 C0.67 4.02 0.34 2.04 0 0 Z " fill="#33624B" transform="translate(122,64)"/>
<path d="M0 0 C0.66 0.33 1.32 0.66 2 1 C2 1.66 2 2.32 2 3 C3.65 3 5.3 3 7 3 C6.360625 3.103125 5.72125 3.20625 5.0625 3.3125 C4.381875 3.539375 3.70125 3.76625 3 4 C2.67 4.99 2.34 5.98 2 7 C0.4375 5.75 0.4375 5.75 -1 4 C-0.6875 1.8125 -0.6875 1.8125 0 0 Z " fill="#4B7E52" transform="translate(119,60)"/>
<path d="M0 0 C2.91227269 3.28804981 4.49701212 5.59885603 5 10 C1.32769295 6.92000054 0.43197635 4.7517398 0 0 Z " fill="#3B6255" transform="translate(95,223)"/>
<path d="M0 0 C2 3 2 3 2 7 C3.65 7 5.3 7 7 7 C7 7.33 7 7.66 7 8 C5.02 8 3.04 8 1 8 C-0.42944945 5.64561267 -1.08661261 4.51967567 -0.625 1.75 C-0.41875 1.1725 -0.2125 0.595 0 0 Z " fill="#326347" transform="translate(172,127)"/>
<path d="M0 0 C0.66 0 1.32 0 2 0 C2 1.32 2 2.64 2 4 C0.35 4.66 -1.3 5.32 -3 6 C-1.125 1.125 -1.125 1.125 0 0 Z " fill="#96CE60" transform="translate(152,132)"/>
<path d="M0 0 C2.0625 0.4375 2.0625 0.4375 4 1 C4.33 2.98 4.66 4.96 5 7 C4.34 7 3.68 7 3 7 C1.61061923 5.03852126 0.2739589 3.03833424 -1 1 C-0.67 0.67 -0.34 0.34 0 0 Z " fill="#52864F" transform="translate(144,123)"/>
<path d="M0 0 C1.98 0 3.96 0 6 0 C6 1.32 6 2.64 6 4 C4.68 3.67 3.36 3.34 2 3 C2 2.34 2 1.68 2 1 C1.34 0.67 0.68 0.34 0 0 Z " fill="#9CD668" transform="translate(196,111)"/>
<path d="M0 0 C1.32 0.33 2.64 0.66 4 1 C1.69 2.65 -0.62 4.3 -3 6 C-3 4.68 -3 3.36 -3 2 C-2.01 1.34 -1.02 0.68 0 0 Z " fill="#2E5146" transform="translate(98,208)"/>
<path d="M0 0 C1.32 0 2.64 0 4 0 C3.67 1.32 3.34 2.64 3 4 C1.35 4 -0.3 4 -2 4 C-1.34 2.68 -0.68 1.36 0 0 Z " fill="#A1DC63" transform="translate(159,146)"/>
<path d="M0 0 C1.98 0.99 1.98 0.99 4 2 C4 3.32 4 4.64 4 6 C3.01 5.67 2.02 5.34 1 5 C0.67 3.35 0.34 1.7 0 0 Z " fill="#82BA6C" transform="translate(136,130)"/>
<path d="M0 0 C2 1.3125 2 1.3125 4 3 C4 3.99 4 4.98 4 6 C2.68 5.67 1.36 5.34 0 5 C0 3.35 0 1.7 0 0 Z " fill="#A3DF67" transform="translate(210,123)"/>
<path d="M0 0 C2.97 0.495 2.97 0.495 6 1 C5.67 1.99 5.34 2.98 5 4 C2.525 3.01 2.525 3.01 0 2 C0 1.34 0 0.68 0 0 Z " fill="#A2DD67" transform="translate(209,106)"/>
<path d="M0 0 C-1.32 0.33 -2.64 0.66 -4 1 C-4 1.66 -4 2.32 -4 3 C-3.34 3.33 -2.68 3.66 -2 4 C-4.31 4 -6.62 4 -9 4 C-7.68 3.67 -6.36 3.34 -5 3 C-5 2.34 -5 1.68 -5 1 C-5.66 0.67 -6.32 0.34 -7 0 C-4.3333581 -1.33332095 -2.83319697 -0.67102033 0 0 Z " fill="#6DA356" transform="translate(228,105)"/>
<path d="M0 0 C0.66 0 1.32 0 2 0 C1.67 1.98 1.34 3.96 1 6 C0.01 6.33 -0.98 6.66 -2 7 C-1.34 4.69 -0.68 2.38 0 0 Z " fill="#A3DB6C" transform="translate(221,97)"/>
<path d="M0 0 C1.32 0 2.64 0 4 0 C4 0.99 4 1.98 4 3 C2.02 3.33 0.04 3.66 -2 4 C-1.34 2.68 -0.68 1.36 0 0 Z " fill="#A2DD67" transform="translate(191,95)"/>
<path d="M0 0 C2.0625 0.4375 2.0625 0.4375 4 1 C4 3 4 3 2.625 4.625 C1 6 1 6 -1 6 C-1.042721 4.33388095 -1.04063832 2.66617115 -1 1 C-0.67 0.67 -0.34 0.34 0 0 Z " fill="#8FC660" transform="translate(121,88)"/>
<path d="M0 0 C0.66 0 1.32 0 2 0 C2 0.99 2 1.98 2 3 C1.34 3 0.68 3 0 3 C-0.33 4.98 -0.66 6.96 -1 9 C-1.33 9 -1.66 9 -2 9 C-2.125 5.625 -2.125 5.625 -2 2 C-1.34 1.34 -0.68 0.68 0 0 Z " fill="#99D36B" transform="translate(137,84)"/>
<path d="M0 0 C1.98 0.495 1.98 0.495 4 1 C3.67 2.32 3.34 3.64 3 5 C1.68 4.67 0.36 4.34 -1 4 C-0.67 2.68 -0.34 1.36 0 0 Z " fill="#7FB661" transform="translate(194,81)"/>
</svg>
